<?xml version="1.0" encoding="UTF-8" standalone="no"?>
<!DOCTYPE svg PUBLIC "-//W3C//DTD SVG 1.1//EN"
 "http://www.w3.org/Graphics/SVG/1.1/DTD/svg11.dtd">
<!-- Generated by graphviz version 2.40.1 (20161225.0304)
 -->
<!-- Title: twoDegreesRelationshipsDiagram Pages: 1 -->
<svg width="522pt" height="355pt"
 viewBox="0.00 0.00 522.00 354.70" xmlns="http://www.w3.org/2000/svg" xmlns:xlink="http://www.w3.org/1999/xlink">
<g id="graph0" class="graph" transform="scale(1 1) rotate(0) translate(4 350.7)">
<title>twoDegreesRelationshipsDiagram</title>
<polygon fill="#ffffff" stroke="transparent" points="-4,4 -4,-350.7 518,-350.7 518,4 -4,4"/>
<text text-anchor="middle" x="72.4936" y="-7.3" font-family="Helvetica,sans-Serif" font-size="11.00" fill="#000000">Generated by SchemaSpy</text>
<!-- article -->
<g id="node1" class="node">
<title>article</title>
<g id="a_node1"><a xlink:href="../../tables/article.html" xlink:title="article" target="_top">
<polygon fill="#ffffff" stroke="transparent" points="145,-120.7 145,-342.7 351,-342.7 351,-120.7 145,-120.7"/>
<polygon fill="#f5f5f5" stroke="transparent" points="147,-317.7 147,-340.7 349,-340.7 349,-317.7 147,-317.7"/>
<polygon fill="none" stroke="#000000" points="147,-317.7 147,-340.7 349,-340.7 349,-317.7 147,-317.7"/>
<text text-anchor="start" x="152" y="-326.8" font-family="Helvetica,sans-Serif" font-weight="bold" font-size="11.00" fill="#000000">article</text>
<text text-anchor="start" x="314.0437" y="-325.8" font-family="Helvetica,sans-Serif" font-size="11.00" fill="#000000">[table]</text>
<polygon fill="none" stroke="#000000" points="147,-295.7 147,-317.7 238,-317.7 238,-295.7 147,-295.7"/>
<image xlink:href="../../images/primaryKeys.png" width="11px" height="12px" preserveAspectRatio="xMinYMin meet" x="152" y="-312.7"/>
<text text-anchor="start" x="167" y="-302.8" font-family="Helvetica,sans-Serif" font-size="11.00" fill="#000000">id</text>
<polygon fill="none" stroke="#000000" points="238,-295.7 238,-317.7 349,-317.7 349,-295.7 238,-295.7"/>
<text text-anchor="start" x="241" y="-303.4" font-family="Helvetica,sans-Serif" font-size="11.00" fill="#000000">int[10]</text>
<polygon fill="none" stroke="#000000" points="147,-273.7 147,-295.7 238,-295.7 238,-273.7 147,-273.7"/>
<text text-anchor="start" x="167" y="-280.8" font-family="Helvetica,sans-Serif" font-size="11.00" fill="#000000">titre</text>
<polygon fill="none" stroke="#000000" points="238,-273.7 238,-295.7 349,-295.7 349,-273.7 238,-273.7"/>
<text text-anchor="start" x="241" y="-281.4" font-family="Helvetica,sans-Serif" font-size="11.00" fill="#000000">varchar[200]</text>
<polygon fill="none" stroke="#000000" points="147,-251.7 147,-273.7 238,-273.7 238,-251.7 147,-251.7"/>
<text text-anchor="start" x="167" y="-258.8" font-family="Helvetica,sans-Serif" font-size="11.00" fill="#000000">contenu</text>
<polygon fill="none" stroke="#000000" points="238,-251.7 238,-273.7 349,-273.7 349,-251.7 238,-251.7"/>
<text text-anchor="start" x="240.6115" y="-259.4" font-family="Helvetica,sans-Serif" font-size="11.00" fill="#000000">longtext[2147483647]</text>
<polygon fill="none" stroke="#000000" points="147,-229.7 147,-251.7 238,-251.7 238,-229.7 147,-229.7"/>
<text text-anchor="start" x="167" y="-236.8" font-family="Helvetica,sans-Serif" font-size="11.00" fill="#000000">created_at</text>
<polygon fill="none" stroke="#000000" points="238,-229.7 238,-251.7 349,-251.7 349,-229.7 238,-229.7"/>
<text text-anchor="start" x="241" y="-237.4" font-family="Helvetica,sans-Serif" font-size="11.00" fill="#000000">datetime[19]</text>
<polygon fill="none" stroke="#000000" points="147,-207.7 147,-229.7 238,-229.7 238,-207.7 147,-207.7"/>
<text text-anchor="start" x="167" y="-214.8" font-family="Helvetica,sans-Serif" font-size="11.00" fill="#000000">slug</text>
<polygon fill="none" stroke="#000000" points="238,-207.7 238,-229.7 349,-229.7 349,-207.7 238,-207.7"/>
<text text-anchor="start" x="241" y="-215.4" font-family="Helvetica,sans-Serif" font-size="11.00" fill="#000000">varchar[255]</text>
<polygon fill="#ffffff" stroke="transparent" points="147,-185.7 147,-207.7 238,-207.7 238,-185.7 147,-185.7"/>
<polygon fill="none" stroke="#000000" points="147,-185.7 147,-207.7 238,-207.7 238,-185.7 147,-185.7"/>
<image xlink:href="../../images/foreignKeys.png" width="11px" height="12px" preserveAspectRatio="xMinYMin meet" x="152" y="-202.7"/>
<text text-anchor="start" x="167" y="-192.8" font-family="Helvetica,sans-Serif" font-size="11.00" fill="#000000">categorie_id</text>
<polygon fill="none" stroke="#000000" points="238,-185.7 238,-207.7 349,-207.7 349,-185.7 238,-185.7"/>
<text text-anchor="start" x="241" y="-193.4" font-family="Helvetica,sans-Serif" font-size="11.00" fill="#000000">int[10]</text>
<polygon fill="none" stroke="#000000" points="147,-163.7 147,-185.7 238,-185.7 238,-163.7 147,-163.7"/>
<text text-anchor="start" x="167" y="-170.8" font-family="Helvetica,sans-Serif" font-size="11.00" fill="#000000">publie</text>
<polygon fill="none" stroke="#000000" points="238,-163.7 238,-185.7 349,-185.7 349,-163.7 238,-163.7"/>
<text text-anchor="start" x="241" y="-171.4" font-family="Helvetica,sans-Serif" font-size="11.00" fill="#000000">bit[1]</text>
<polygon fill="none" stroke="#000000" points="147,-141.7 147,-163.7 238,-163.7 238,-141.7 147,-141.7"/>
<text text-anchor="start" x="167" y="-148.8" font-family="Helvetica,sans-Serif" font-size="11.00" fill="#000000">publi</text>
<polygon fill="none" stroke="#000000" points="238,-141.7 238,-163.7 349,-163.7 349,-141.7 238,-141.7"/>
<text text-anchor="start" x="241" y="-149.4" font-family="Helvetica,sans-Serif" font-size="11.00" fill="#000000">bit[1]</text>
<polygon fill="#ffffff" stroke="transparent" points="147,-122.7 147,-141.7 181,-141.7 181,-122.7 147,-122.7"/>
<polygon fill="none" stroke="#000000" points="147,-122.7 147,-141.7 181,-141.7 181,-122.7 147,-122.7"/>
<text text-anchor="start" x="150" y="-128.8" font-family="Helvetica,sans-Serif" font-size="11.00" fill="#000000">&lt; 1</text>
<polygon fill="#ffffff" stroke="transparent" points="181,-122.7 181,-141.7 238,-141.7 238,-122.7 181,-122.7"/>
<polygon fill="none" stroke="#000000" points="181,-122.7 181,-141.7 238,-141.7 238,-122.7 181,-122.7"/>
<text text-anchor="start" x="196.4956" y="-128.8" font-family="Helvetica,sans-Serif" font-size="11.00" fill="#000000">50 rows</text>
<polygon fill="#ffffff" stroke="transparent" points="238,-122.7 238,-141.7 349,-141.7 349,-122.7 238,-122.7"/>
<polygon fill="none" stroke="#000000" points="238,-122.7 238,-141.7 349,-141.7 349,-122.7 238,-122.7"/>
<text text-anchor="start" x="330.4053" y="-128.8" font-family="Helvetica,sans-Serif" font-size="11.00" fill="#000000">1 &gt;</text>
<polygon fill="none" stroke="#000000" stroke-width="2" points="146,-121.7 146,-341.7 350,-341.7 350,-121.7 146,-121.7"/>
</a>
</g>
</g>
<!-- categorie -->
<g id="node2" class="node">
<title>categorie</title>
<g id="a_node2"><a xlink:href="../../tables/categorie.html" xlink:title="categorie" target="_top">
<polygon fill="#ffffff" stroke="transparent" points="8,-148.2 8,-231.2 96,-231.2 96,-148.2 8,-148.2"/>
<polygon fill="#f5f5f5" stroke="transparent" points="8,-207.7 8,-230.7 96,-230.7 96,-207.7 8,-207.7"/>
<polygon fill="none" stroke="#000000" points="8,-207.7 8,-230.7 96,-230.7 96,-207.7 8,-207.7"/>
<text text-anchor="start" x="12.8829" y="-216.8" font-family="Helvetica,sans-Serif" font-weight="bold" font-size="11.00" fill="#000000">categorie</text>
<text text-anchor="start" x="61.5219" y="-215.8" font-family="Helvetica,sans-Serif" font-size="11.00" fill="#000000">[table]</text>
<polygon fill="none" stroke="#000000" points="8,-185.7 8,-207.7 96,-207.7 96,-185.7 8,-185.7"/>
<image xlink:href="../../images/primaryKeys.png" width="11px" height="12px" preserveAspectRatio="xMinYMin meet" x="13" y="-202.7"/>
<text text-anchor="start" x="35" y="-192.8" font-family="Helvetica,sans-Serif" font-size="11.00" fill="#000000">id</text>
<polygon fill="none" stroke="#000000" points="8,-166.7 8,-185.7 96,-185.7 96,-166.7 8,-166.7"/>
<text text-anchor="start" x="11" y="-172.8" font-family="Helvetica,sans-Serif" font-size="11.00" fill="#000000">...</text>
<polygon fill="#ffffff" stroke="transparent" points="8,-147.7 8,-166.7 28,-166.7 28,-147.7 8,-147.7"/>
<polygon fill="none" stroke="#000000" points="8,-147.7 8,-166.7 28,-166.7 28,-147.7 8,-147.7"/>
<text text-anchor="start" x="11" y="-153.8" font-family="Helvetica,sans-Serif" font-size="11.00" fill="#000000"> &#160;</text>
<polygon fill="#ffffff" stroke="transparent" points="28,-147.7 28,-166.7 70,-166.7 70,-147.7 28,-147.7"/>
<polygon fill="none" stroke="#000000" points="28,-147.7 28,-166.7 70,-166.7 70,-147.7 28,-147.7"/>
<text text-anchor="start" x="34.6105" y="-153.8" font-family="Helvetica,sans-Serif" font-size="11.00" fill="#000000">9 rows</text>
<polygon fill="#ffffff" stroke="transparent" points="70,-147.7 70,-166.7 96,-166.7 96,-147.7 70,-147.7"/>
<polygon fill="none" stroke="#000000" points="70,-147.7 70,-166.7 96,-166.7 96,-147.7 70,-147.7"/>
<text text-anchor="start" x="77.4053" y="-153.8" font-family="Helvetica,sans-Serif" font-size="11.00" fill="#000000">1 &gt;</text>
</a>
</g>
</g>
<!-- article&#45;&gt;categorie -->
<g id="edge1" class="edge">
<title>article:w&#45;&gt;categorie:e</title>
<path fill="none" stroke="#000000" d="M132.276,-196.7C120.2815,-196.7 112.8229,-196.7 96,-196.7"/>
<polygon fill="#000000" stroke="#000000" points="139,-196.7001 147,-200.3 143,-196.7 147,-196.7 147,-196.7 147,-196.7 143,-196.7 147,-193.1 139,-196.7001 139,-196.7001"/>
<ellipse fill="none" stroke="#000000" cx="135.8" cy="-196.7001" rx="3.2" ry="3.2"/>
</g>
<!-- commentaire -->
<g id="node3" class="node">
<title>commentaire</title>
<g id="a_node3"><a xlink:href="../../tables/commentaire.html" xlink:title="commentaire" target="_top">
<polygon fill="#ffffff" stroke="transparent" points="400,-126.2 400,-253.2 506,-253.2 506,-126.2 400,-126.2"/>
<polygon fill="#f5f5f5" stroke="transparent" points="400,-229.7 400,-252.7 506,-252.7 506,-229.7 400,-229.7"/>
<polygon fill="none" stroke="#000000" points="400,-229.7 400,-252.7 506,-252.7 506,-229.7 400,-229.7"/>
<text text-anchor="start" x="404.721" y="-238.8" font-family="Helvetica,sans-Serif" font-weight="bold" font-size="11.00" fill="#000000">commentaire</text>
<text text-anchor="start" x="471.5219" y="-237.8" font-family="Helvetica,sans-Serif" font-size="11.00" fill="#000000">[table]</text>
<polygon fill="none" stroke="#000000" points="400,-207.7 400,-229.7 506,-229.7 506,-207.7 400,-207.7"/>
<image xlink:href="../../images/primaryKeys.png" width="11px" height="12px" preserveAspectRatio="xMinYMin meet" x="405" y="-224.7"/>
<text text-anchor="start" x="422" y="-214.8" font-family="Helvetica,sans-Serif" font-size="11.00" fill="#000000">id</text>
<polygon fill="#ffffff" stroke="transparent" points="400,-185.7 400,-207.7 506,-207.7 506,-185.7 400,-185.7"/>
<polygon fill="none" stroke="#000000" points="400,-185.7 400,-207.7 506,-207.7 506,-185.7 400,-185.7"/>
<image xlink:href="../../images/foreignKeys.png" width="11px" height="12px" preserveAspectRatio="xMinYMin meet" x="405" y="-202.7"/>
<text text-anchor="start" x="422" y="-192.8" font-family="Helvetica,sans-Serif" font-size="11.00" fill="#000000">article_id</text>
<polygon fill="#ffffff" stroke="transparent" points="400,-163.7 400,-185.7 506,-185.7 506,-163.7 400,-163.7"/>
<polygon fill="none" stroke="#000000" points="400,-163.7 400,-185.7 506,-185.7 506,-163.7 400,-163.7"/>
<image xlink:href="../../images/foreignKeys.png" width="11px" height="12px" preserveAspectRatio="xMinYMin meet" x="405" y="-180.7"/>
<text text-anchor="start" x="422" y="-170.8" font-family="Helvetica,sans-Serif" font-size="11.00" fill="#000000">utilisateurs_id</text>
<polygon fill="none" stroke="#000000" points="400,-144.7 400,-163.7 506,-163.7 506,-144.7 400,-144.7"/>
<text text-anchor="start" x="403" y="-150.8" font-family="Helvetica,sans-Serif" font-size="11.00" fill="#000000">...</text>
<polygon fill="#ffffff" stroke="transparent" points="400,-125.7 400,-144.7 435,-144.7 435,-125.7 400,-125.7"/>
<polygon fill="none" stroke="#000000" points="400,-125.7 400,-144.7 435,-144.7 435,-125.7 400,-125.7"/>
<text text-anchor="start" x="403" y="-131.8" font-family="Helvetica,sans-Serif" font-size="11.00" fill="#000000">&lt; 2</text>
<polygon fill="#ffffff" stroke="transparent" points="435,-125.7 435,-144.7 486,-144.7 486,-125.7 435,-125.7"/>
<polygon fill="none" stroke="#000000" points="435,-125.7 435,-144.7 486,-144.7 486,-125.7 435,-125.7"/>
<text text-anchor="start" x="444.4956" y="-131.8" font-family="Helvetica,sans-Serif" font-size="11.00" fill="#000000">50 rows</text>
<polygon fill="#ffffff" stroke="transparent" points="486,-125.7 486,-144.7 506,-144.7 506,-125.7 486,-125.7"/>
<polygon fill="none" stroke="#000000" points="486,-125.7 486,-144.7 506,-144.7 506,-125.7 486,-125.7"/>
<text text-anchor="start" x="496.8862" y="-131.8" font-family="Helvetica,sans-Serif" font-size="11.00" fill="#000000"> &#160;</text>
</a>
</g>
</g>
<!-- commentaire&#45;&gt;article -->
<g id="edge2" class="edge">
<title>commentaire:w&#45;&gt;article:e</title>
<path fill="none" stroke="#000000" d="M386,-200.3599C357.208,-219.4466 396.9939,-306.7 349,-306.7"/>
<polygon fill="#000000" stroke="#000000" points="392.2601,-198.7234 400.9105,-200.183 396.1301,-197.7117 400,-196.7 400,-196.7 400,-196.7 396.1301,-197.7117 399.0895,-193.217 392.2601,-198.7234 392.2601,-198.7234"/>
<ellipse fill="none" stroke="#000000" cx="389.1641" cy="-199.5328" rx="3.2" ry="3.2"/>
</g>
<!-- utilisateur -->
<g id="node4" class="node">
<title>utilisateur</title>
<g id="a_node4"><a xlink:href="../../tables/utilisateur.html" xlink:title="utilisateur" target="_top">
<polygon fill="#ffffff" stroke="transparent" points="203,-38.2 203,-99.2 293,-99.2 293,-38.2 203,-38.2"/>
<polygon fill="#f5f5f5" stroke="transparent" points="203,-75.7 203,-98.7 293,-98.7 293,-75.7 203,-75.7"/>
<polygon fill="none" stroke="#000000" points="203,-75.7 203,-98.7 293,-98.7 293,-75.7 203,-75.7"/>
<text text-anchor="start" x="207.971" y="-84.8" font-family="Helvetica,sans-Serif" font-weight="bold" font-size="11.00" fill="#000000">utilisateur</text>
<text text-anchor="start" x="258.5219" y="-83.8" font-family="Helvetica,sans-Serif" font-size="11.00" fill="#000000">[table]</text>
<polygon fill="none" stroke="#000000" points="203,-56.7 203,-75.7 293,-75.7 293,-56.7 203,-56.7"/>
<text text-anchor="start" x="206" y="-62.8" font-family="Helvetica,sans-Serif" font-size="11.00" fill="#000000">...</text>
<polygon fill="#ffffff" stroke="transparent" points="203,-37.7 203,-56.7 221,-56.7 221,-37.7 203,-37.7"/>
<polygon fill="none" stroke="#000000" points="203,-37.7 203,-56.7 221,-56.7 221,-37.7 203,-37.7"/>
<text text-anchor="start" x="206" y="-43.8" font-family="Helvetica,sans-Serif" font-size="11.00" fill="#000000"> &#160;</text>
<polygon fill="#ffffff" stroke="transparent" points="221,-37.7 221,-56.7 268,-56.7 268,-37.7 221,-37.7"/>
<polygon fill="none" stroke="#000000" points="221,-37.7 221,-56.7 268,-56.7 268,-37.7 221,-37.7"/>
<text text-anchor="start" x="226.4956" y="-43.8" font-family="Helvetica,sans-Serif" font-size="11.00" fill="#000000">50 rows</text>
<polygon fill="#ffffff" stroke="transparent" points="268,-37.7 268,-56.7 293,-56.7 293,-37.7 268,-37.7"/>
<polygon fill="none" stroke="#000000" points="268,-37.7 268,-56.7 293,-56.7 293,-37.7 268,-37.7"/>
<text text-anchor="start" x="274.4053" y="-43.8" font-family="Helvetica,sans-Serif" font-size="11.00" fill="#000000">1 &gt;</text>
</a>
</g>
</g>
<!-- commentaire&#45;&gt;utilisateur -->
<g id="edge3" class="edge">
<title>commentaire:w&#45;&gt;utilisateur:e</title>
<path fill="none" stroke="#000000" d="M385.6896,-170.8698C370.9388,-160.3315 378.1277,-130.384 359,-110.7 334.2581,-85.2386 328.5027,-65.7 293,-65.7"/>
<polygon fill="#000000" stroke="#000000" points="392.272,-172.6315 399.0692,-178.1776 396.136,-173.6658 400,-174.7 400,-174.7 400,-174.7 396.136,-173.6658 400.9308,-171.2224 392.272,-172.6315 392.272,-172.6315"/>
<ellipse fill="none" stroke="#000000" cx="389.1808" cy="-171.8042" rx="3.2" ry="3.2"/>
</g>
</g>
</svg>
