<?xml version="1.0" encoding="UTF-8" standalone="no"?>
<!DOCTYPE svg PUBLIC "-//W3C//DTD SVG 1.1//EN"
 "http://www.w3.org/Graphics/SVG/1.1/DTD/svg11.dtd">
<!-- Generated by graphviz version 2.40.1 (20161225.0304)
 -->
<!-- Title: oneDegreeRelationshipsDiagram Pages: 1 -->
<svg width="522pt" height="293pt"
 viewBox="0.00 0.00 522.00 292.70" xmlns="http://www.w3.org/2000/svg" xmlns:xlink="http://www.w3.org/1999/xlink">
<g id="graph0" class="graph" transform="scale(1 1) rotate(0) translate(4 288.7)">
<title>oneDegreeRelationshipsDiagram</title>
<polygon fill="#ffffff" stroke="transparent" points="-4,4 -4,-288.7 518,-288.7 518,4 -4,4"/>
<text text-anchor="middle" x="72.4936" y="-7.3" font-family="Helvetica,sans-Serif" font-size="11.00" fill="#000000">Generated by SchemaSpy</text>
<!-- article -->
<g id="node1" class="node">
<title>article</title>
<g id="a_node1"><a xlink:href="../../tables/article.html" xlink:title="article" target="_top">
<polygon fill="#ffffff" stroke="transparent" points="145,-38.2 145,-260.2 351,-260.2 351,-38.2 145,-38.2"/>
<polygon fill="#f5f5f5" stroke="transparent" points="147,-235.2 147,-258.2 349,-258.2 349,-235.2 147,-235.2"/>
<polygon fill="none" stroke="#000000" points="147,-235.2 147,-258.2 349,-258.2 349,-235.2 147,-235.2"/>
<text text-anchor="start" x="152" y="-244.3" font-family="Helvetica,sans-Serif" font-weight="bold" font-size="11.00" fill="#000000">article</text>
<text text-anchor="start" x="314.0437" y="-243.3" font-family="Helvetica,sans-Serif" font-size="11.00" fill="#000000">[table]</text>
<polygon fill="none" stroke="#000000" points="147,-213.2 147,-235.2 238,-235.2 238,-213.2 147,-213.2"/>
<image xlink:href="../../images/primaryKeys.png" width="11px" height="12px" preserveAspectRatio="xMinYMin meet" x="152" y="-230.2"/>
<text text-anchor="start" x="167" y="-220.3" font-family="Helvetica,sans-Serif" font-size="11.00" fill="#000000">id</text>
<polygon fill="none" stroke="#000000" points="238,-213.2 238,-235.2 349,-235.2 349,-213.2 238,-213.2"/>
<text text-anchor="start" x="241" y="-220.9" font-family="Helvetica,sans-Serif" font-size="11.00" fill="#000000">int[10]</text>
<polygon fill="none" stroke="#000000" points="147,-191.2 147,-213.2 238,-213.2 238,-191.2 147,-191.2"/>
<text text-anchor="start" x="167" y="-198.3" font-family="Helvetica,sans-Serif" font-size="11.00" fill="#000000">titre</text>
<polygon fill="none" stroke="#000000" points="238,-191.2 238,-213.2 349,-213.2 349,-191.2 238,-191.2"/>
<text text-anchor="start" x="241" y="-198.9" font-family="Helvetica,sans-Serif" font-size="11.00" fill="#000000">varchar[200]</text>
<polygon fill="none" stroke="#000000" points="147,-169.2 147,-191.2 238,-191.2 238,-169.2 147,-169.2"/>
<text text-anchor="start" x="167" y="-176.3" font-family="Helvetica,sans-Serif" font-size="11.00" fill="#000000">contenu</text>
<polygon fill="none" stroke="#000000" points="238,-169.2 238,-191.2 349,-191.2 349,-169.2 238,-169.2"/>
<text text-anchor="start" x="240.6115" y="-176.9" font-family="Helvetica,sans-Serif" font-size="11.00" fill="#000000">longtext[2147483647]</text>
<polygon fill="none" stroke="#000000" points="147,-147.2 147,-169.2 238,-169.2 238,-147.2 147,-147.2"/>
<text text-anchor="start" x="167" y="-154.3" font-family="Helvetica,sans-Serif" font-size="11.00" fill="#000000">created_at</text>
<polygon fill="none" stroke="#000000" points="238,-147.2 238,-169.2 349,-169.2 349,-147.2 238,-147.2"/>
<text text-anchor="start" x="241" y="-154.9" font-family="Helvetica,sans-Serif" font-size="11.00" fill="#000000">datetime[19]</text>
<polygon fill="none" stroke="#000000" points="147,-125.2 147,-147.2 238,-147.2 238,-125.2 147,-125.2"/>
<text text-anchor="start" x="167" y="-132.3" font-family="Helvetica,sans-Serif" font-size="11.00" fill="#000000">slug</text>
<polygon fill="none" stroke="#000000" points="238,-125.2 238,-147.2 349,-147.2 349,-125.2 238,-125.2"/>
<text text-anchor="start" x="241" y="-132.9" font-family="Helvetica,sans-Serif" font-size="11.00" fill="#000000">varchar[255]</text>
<polygon fill="#ffffff" stroke="transparent" points="147,-103.2 147,-125.2 238,-125.2 238,-103.2 147,-103.2"/>
<polygon fill="none" stroke="#000000" points="147,-103.2 147,-125.2 238,-125.2 238,-103.2 147,-103.2"/>
<image xlink:href="../../images/foreignKeys.png" width="11px" height="12px" preserveAspectRatio="xMinYMin meet" x="152" y="-120.2"/>
<text text-anchor="start" x="167" y="-110.3" font-family="Helvetica,sans-Serif" font-size="11.00" fill="#000000">categorie_id</text>
<polygon fill="none" stroke="#000000" points="238,-103.2 238,-125.2 349,-125.2 349,-103.2 238,-103.2"/>
<text text-anchor="start" x="241" y="-110.9" font-family="Helvetica,sans-Serif" font-size="11.00" fill="#000000">int[10]</text>
<polygon fill="none" stroke="#000000" points="147,-81.2 147,-103.2 238,-103.2 238,-81.2 147,-81.2"/>
<text text-anchor="start" x="167" y="-88.3" font-family="Helvetica,sans-Serif" font-size="11.00" fill="#000000">publie</text>
<polygon fill="none" stroke="#000000" points="238,-81.2 238,-103.2 349,-103.2 349,-81.2 238,-81.2"/>
<text text-anchor="start" x="241" y="-88.9" font-family="Helvetica,sans-Serif" font-size="11.00" fill="#000000">bit[1]</text>
<polygon fill="none" stroke="#000000" points="147,-59.2 147,-81.2 238,-81.2 238,-59.2 147,-59.2"/>
<text text-anchor="start" x="167" y="-66.3" font-family="Helvetica,sans-Serif" font-size="11.00" fill="#000000">publi</text>
<polygon fill="none" stroke="#000000" points="238,-59.2 238,-81.2 349,-81.2 349,-59.2 238,-59.2"/>
<text text-anchor="start" x="241" y="-66.9" font-family="Helvetica,sans-Serif" font-size="11.00" fill="#000000">bit[1]</text>
<polygon fill="#ffffff" stroke="transparent" points="147,-40.2 147,-59.2 181,-59.2 181,-40.2 147,-40.2"/>
<polygon fill="none" stroke="#000000" points="147,-40.2 147,-59.2 181,-59.2 181,-40.2 147,-40.2"/>
<text text-anchor="start" x="150" y="-46.3" font-family="Helvetica,sans-Serif" font-size="11.00" fill="#000000">&lt; 1</text>
<polygon fill="#ffffff" stroke="transparent" points="181,-40.2 181,-59.2 238,-59.2 238,-40.2 181,-40.2"/>
<polygon fill="none" stroke="#000000" points="181,-40.2 181,-59.2 238,-59.2 238,-40.2 181,-40.2"/>
<text text-anchor="start" x="196.4956" y="-46.3" font-family="Helvetica,sans-Serif" font-size="11.00" fill="#000000">50 rows</text>
<polygon fill="#ffffff" stroke="transparent" points="238,-40.2 238,-59.2 349,-59.2 349,-40.2 238,-40.2"/>
<polygon fill="none" stroke="#000000" points="238,-40.2 238,-59.2 349,-59.2 349,-40.2 238,-40.2"/>
<text text-anchor="start" x="330.4053" y="-46.3" font-family="Helvetica,sans-Serif" font-size="11.00" fill="#000000">1 &gt;</text>
<polygon fill="none" stroke="#000000" stroke-width="2" points="146,-39.2 146,-259.2 350,-259.2 350,-39.2 146,-39.2"/>
</a>
</g>
</g>
<!-- categorie -->
<g id="node2" class="node">
<title>categorie</title>
<g id="a_node2"><a xlink:href="../../tables/categorie.html" xlink:title="categorie" target="_top">
<polygon fill="#ffffff" stroke="transparent" points="8,-65.7 8,-148.7 96,-148.7 96,-65.7 8,-65.7"/>
<polygon fill="#f5f5f5" stroke="transparent" points="8,-125.2 8,-148.2 96,-148.2 96,-125.2 8,-125.2"/>
<polygon fill="none" stroke="#000000" points="8,-125.2 8,-148.2 96,-148.2 96,-125.2 8,-125.2"/>
<text text-anchor="start" x="12.8829" y="-134.3" font-family="Helvetica,sans-Serif" font-weight="bold" font-size="11.00" fill="#000000">categorie</text>
<text text-anchor="start" x="61.5219" y="-133.3" font-family="Helvetica,sans-Serif" font-size="11.00" fill="#000000">[table]</text>
<polygon fill="none" stroke="#000000" points="8,-103.2 8,-125.2 96,-125.2 96,-103.2 8,-103.2"/>
<image xlink:href="../../images/primaryKeys.png" width="11px" height="12px" preserveAspectRatio="xMinYMin meet" x="13" y="-120.2"/>
<text text-anchor="start" x="35" y="-110.3" font-family="Helvetica,sans-Serif" font-size="11.00" fill="#000000">id</text>
<polygon fill="none" stroke="#000000" points="8,-84.2 8,-103.2 96,-103.2 96,-84.2 8,-84.2"/>
<text text-anchor="start" x="11" y="-90.3" font-family="Helvetica,sans-Serif" font-size="11.00" fill="#000000">...</text>
<polygon fill="#ffffff" stroke="transparent" points="8,-65.2 8,-84.2 28,-84.2 28,-65.2 8,-65.2"/>
<polygon fill="none" stroke="#000000" points="8,-65.2 8,-84.2 28,-84.2 28,-65.2 8,-65.2"/>
<text text-anchor="start" x="11" y="-71.3" font-family="Helvetica,sans-Serif" font-size="11.00" fill="#000000"> &#160;</text>
<polygon fill="#ffffff" stroke="transparent" points="28,-65.2 28,-84.2 70,-84.2 70,-65.2 28,-65.2"/>
<polygon fill="none" stroke="#000000" points="28,-65.2 28,-84.2 70,-84.2 70,-65.2 28,-65.2"/>
<text text-anchor="start" x="34.6105" y="-71.3" font-family="Helvetica,sans-Serif" font-size="11.00" fill="#000000">9 rows</text>
<polygon fill="#ffffff" stroke="transparent" points="70,-65.2 70,-84.2 96,-84.2 96,-65.2 70,-65.2"/>
<polygon fill="none" stroke="#000000" points="70,-65.2 70,-84.2 96,-84.2 96,-65.2 70,-65.2"/>
<text text-anchor="start" x="77.4053" y="-71.3" font-family="Helvetica,sans-Serif" font-size="11.00" fill="#000000">1 &gt;</text>
</a>
</g>
</g>
<!-- article&#45;&gt;categorie -->
<g id="edge1" class="edge">
<title>article:w&#45;&gt;categorie:e</title>
<path fill="none" stroke="#000000" d="M132.276,-114.2C120.2815,-114.2 112.8229,-114.2 96,-114.2"/>
<polygon fill="#000000" stroke="#000000" points="139,-114.2001 147,-117.8 143,-114.2 147,-114.2 147,-114.2 147,-114.2 143,-114.2 147,-110.6 139,-114.2001 139,-114.2001"/>
<ellipse fill="none" stroke="#000000" cx="135.8" cy="-114.2001" rx="3.2" ry="3.2"/>
</g>
<!-- commentaire -->
<g id="node3" class="node">
<title>commentaire</title>
<g id="a_node3"><a xlink:href="../../tables/commentaire.html" xlink:title="commentaire" target="_top">
<polygon fill="#ffffff" stroke="transparent" points="400,-153.7 400,-280.7 506,-280.7 506,-153.7 400,-153.7"/>
<polygon fill="#f5f5f5" stroke="transparent" points="400,-257.2 400,-280.2 506,-280.2 506,-257.2 400,-257.2"/>
<polygon fill="none" stroke="#000000" points="400,-257.2 400,-280.2 506,-280.2 506,-257.2 400,-257.2"/>
<text text-anchor="start" x="404.721" y="-266.3" font-family="Helvetica,sans-Serif" font-weight="bold" font-size="11.00" fill="#000000">commentaire</text>
<text text-anchor="start" x="471.5219" y="-265.3" font-family="Helvetica,sans-Serif" font-size="11.00" fill="#000000">[table]</text>
<polygon fill="none" stroke="#000000" points="400,-235.2 400,-257.2 506,-257.2 506,-235.2 400,-235.2"/>
<image xlink:href="../../images/primaryKeys.png" width="11px" height="12px" preserveAspectRatio="xMinYMin meet" x="405" y="-252.2"/>
<text text-anchor="start" x="422" y="-242.3" font-family="Helvetica,sans-Serif" font-size="11.00" fill="#000000">id</text>
<polygon fill="#ffffff" stroke="transparent" points="400,-213.2 400,-235.2 506,-235.2 506,-213.2 400,-213.2"/>
<polygon fill="none" stroke="#000000" points="400,-213.2 400,-235.2 506,-235.2 506,-213.2 400,-213.2"/>
<image xlink:href="../../images/foreignKeys.png" width="11px" height="12px" preserveAspectRatio="xMinYMin meet" x="405" y="-230.2"/>
<text text-anchor="start" x="422" y="-220.3" font-family="Helvetica,sans-Serif" font-size="11.00" fill="#000000">article_id</text>
<polygon fill="#ffffff" stroke="transparent" points="400,-191.2 400,-213.2 506,-213.2 506,-191.2 400,-191.2"/>
<polygon fill="none" stroke="#000000" points="400,-191.2 400,-213.2 506,-213.2 506,-191.2 400,-191.2"/>
<image xlink:href="../../images/foreignKeys.png" width="11px" height="12px" preserveAspectRatio="xMinYMin meet" x="405" y="-208.2"/>
<text text-anchor="start" x="422" y="-198.3" font-family="Helvetica,sans-Serif" font-size="11.00" fill="#000000">utilisateurs_id</text>
<polygon fill="none" stroke="#000000" points="400,-172.2 400,-191.2 506,-191.2 506,-172.2 400,-172.2"/>
<text text-anchor="start" x="403" y="-178.3" font-family="Helvetica,sans-Serif" font-size="11.00" fill="#000000">...</text>
<polygon fill="#ffffff" stroke="transparent" points="400,-153.2 400,-172.2 435,-172.2 435,-153.2 400,-153.2"/>
<polygon fill="none" stroke="#000000" points="400,-153.2 400,-172.2 435,-172.2 435,-153.2 400,-153.2"/>
<text text-anchor="start" x="403" y="-159.3" font-family="Helvetica,sans-Serif" font-size="11.00" fill="#000000">&lt; 2</text>
<polygon fill="#ffffff" stroke="transparent" points="435,-153.2 435,-172.2 486,-172.2 486,-153.2 435,-153.2"/>
<polygon fill="none" stroke="#000000" points="435,-153.2 435,-172.2 486,-172.2 486,-153.2 435,-153.2"/>
<text text-anchor="start" x="444.4956" y="-159.3" font-family="Helvetica,sans-Serif" font-size="11.00" fill="#000000">50 rows</text>
<polygon fill="#ffffff" stroke="transparent" points="486,-153.2 486,-172.2 506,-172.2 506,-153.2 486,-153.2"/>
<polygon fill="none" stroke="#000000" points="486,-153.2 486,-172.2 506,-172.2 506,-153.2 486,-153.2"/>
<text text-anchor="start" x="496.8862" y="-159.3" font-family="Helvetica,sans-Serif" font-size="11.00" fill="#000000"> &#160;</text>
</a>
</g>
</g>
<!-- commentaire&#45;&gt;article -->
<g id="edge2" class="edge">
<title>commentaire:w&#45;&gt;article:e</title>
<path fill="none" stroke="#000000" d="M385.276,-224.2C373.2815,-224.2 365.8229,-224.2 349,-224.2"/>
<polygon fill="#000000" stroke="#000000" points="392,-224.2001 400,-227.8 396,-224.2 400,-224.2 400,-224.2 400,-224.2 396,-224.2 400,-220.6 392,-224.2001 392,-224.2001"/>
<ellipse fill="none" stroke="#000000" cx="388.8" cy="-224.2001" rx="3.2" ry="3.2"/>
</g>
</g>
</svg>
