<?xml version="1.0" encoding="UTF-8" standalone="no"?>
<!DOCTYPE svg PUBLIC "-//W3C//DTD SVG 1.1//EN"
 "http://www.w3.org/Graphics/SVG/1.1/DTD/svg11.dtd">
<!-- Generated by graphviz version 2.40.1 (20161225.0304)
 -->
<!-- Title: oneDegreeRelationshipsDiagram Pages: 1 -->
<svg width="309pt" height="183pt"
 viewBox="0.00 0.00 309.00 182.70" xmlns="http://www.w3.org/2000/svg" xmlns:xlink="http://www.w3.org/1999/xlink">
<g id="graph0" class="graph" transform="scale(1 1) rotate(0) translate(4 178.7)">
<title>oneDegreeRelationshipsDiagram</title>
<polygon fill="#ffffff" stroke="transparent" points="-4,4 -4,-178.7 305,-178.7 305,4 -4,4"/>
<text text-anchor="middle" x="72.4936" y="-7.3" font-family="Helvetica,sans-Serif" font-size="11.00" fill="#000000">Generated by SchemaSpy</text>
<!-- article -->
<g id="node1" class="node">
<title>article</title>
<g id="a_node1"><a xlink:href="../../tables/article.html" xlink:title="article" target="_top">
<polygon fill="#ffffff" stroke="transparent" points="202,-65.7 202,-170.7 293,-170.7 293,-65.7 202,-65.7"/>
<polygon fill="#f5f5f5" stroke="transparent" points="202.5,-147.2 202.5,-170.2 293.5,-170.2 293.5,-147.2 202.5,-147.2"/>
<polygon fill="none" stroke="#000000" points="202.5,-147.2 202.5,-170.2 293.5,-170.2 293.5,-147.2 202.5,-147.2"/>
<text text-anchor="start" x="207.5" y="-156.3" font-family="Helvetica,sans-Serif" font-weight="bold" font-size="11.00" fill="#000000">article</text>
<text text-anchor="start" x="258.5437" y="-155.3" font-family="Helvetica,sans-Serif" font-size="11.00" fill="#000000">[table]</text>
<polygon fill="none" stroke="#000000" points="202.5,-125.2 202.5,-147.2 293.5,-147.2 293.5,-125.2 202.5,-125.2"/>
<image xlink:href="../../images/primaryKeys.png" width="11px" height="12px" preserveAspectRatio="xMinYMin meet" x="207.5" y="-142.2"/>
<text text-anchor="start" x="222.5" y="-132.3" font-family="Helvetica,sans-Serif" font-size="11.00" fill="#000000">id</text>
<polygon fill="#ffffff" stroke="transparent" points="202.5,-103.2 202.5,-125.2 293.5,-125.2 293.5,-103.2 202.5,-103.2"/>
<polygon fill="none" stroke="#000000" points="202.5,-103.2 202.5,-125.2 293.5,-125.2 293.5,-103.2 202.5,-103.2"/>
<image xlink:href="../../images/foreignKeys.png" width="11px" height="12px" preserveAspectRatio="xMinYMin meet" x="207.5" y="-120.2"/>
<text text-anchor="start" x="222.5" y="-110.3" font-family="Helvetica,sans-Serif" font-size="11.00" fill="#000000">categorie_id</text>
<polygon fill="none" stroke="#000000" points="202.5,-84.2 202.5,-103.2 293.5,-103.2 293.5,-84.2 202.5,-84.2"/>
<text text-anchor="start" x="205.5" y="-90.3" font-family="Helvetica,sans-Serif" font-size="11.00" fill="#000000">...</text>
<polygon fill="#ffffff" stroke="transparent" points="202.5,-65.2 202.5,-84.2 225.5,-84.2 225.5,-65.2 202.5,-65.2"/>
<polygon fill="none" stroke="#000000" points="202.5,-65.2 202.5,-84.2 225.5,-84.2 225.5,-65.2 202.5,-65.2"/>
<text text-anchor="start" x="205.5" y="-71.3" font-family="Helvetica,sans-Serif" font-size="11.00" fill="#000000">&lt; 1</text>
<polygon fill="#ffffff" stroke="transparent" points="225.5,-65.2 225.5,-84.2 270.5,-84.2 270.5,-65.2 225.5,-65.2"/>
<polygon fill="none" stroke="#000000" points="225.5,-65.2 225.5,-84.2 270.5,-84.2 270.5,-65.2 225.5,-65.2"/>
<text text-anchor="start" x="228.9956" y="-71.3" font-family="Helvetica,sans-Serif" font-size="11.00" fill="#000000">50 rows</text>
<polygon fill="#ffffff" stroke="transparent" points="270.5,-65.2 270.5,-84.2 293.5,-84.2 293.5,-65.2 270.5,-65.2"/>
<polygon fill="none" stroke="#000000" points="270.5,-65.2 270.5,-84.2 293.5,-84.2 293.5,-65.2 270.5,-65.2"/>
<text text-anchor="start" x="274.9053" y="-71.3" font-family="Helvetica,sans-Serif" font-size="11.00" fill="#000000">1 &gt;</text>
</a>
</g>
</g>
<!-- categorie -->
<g id="node2" class="node">
<title>categorie</title>
<g id="a_node2"><a xlink:href="../../tables/categorie.html" xlink:title="categorie" target="_top">
<polygon fill="#ffffff" stroke="transparent" points="8,-38.2 8,-150.2 153,-150.2 153,-38.2 8,-38.2"/>
<polygon fill="#f5f5f5" stroke="transparent" points="10.5,-125.2 10.5,-148.2 151.5,-148.2 151.5,-125.2 10.5,-125.2"/>
<polygon fill="none" stroke="#000000" points="10.5,-125.2 10.5,-148.2 151.5,-148.2 151.5,-125.2 10.5,-125.2"/>
<text text-anchor="start" x="15.5" y="-134.3" font-family="Helvetica,sans-Serif" font-weight="bold" font-size="11.00" fill="#000000">categorie</text>
<text text-anchor="start" x="116.5437" y="-133.3" font-family="Helvetica,sans-Serif" font-size="11.00" fill="#000000">[table]</text>
<polygon fill="none" stroke="#000000" points="10.5,-103.2 10.5,-125.2 84.5,-125.2 84.5,-103.2 10.5,-103.2"/>
<image xlink:href="../../images/primaryKeys.png" width="11px" height="12px" preserveAspectRatio="xMinYMin meet" x="15.5" y="-120.2"/>
<text text-anchor="start" x="30.5" y="-110.3" font-family="Helvetica,sans-Serif" font-size="11.00" fill="#000000">id</text>
<polygon fill="none" stroke="#000000" points="84.5,-103.2 84.5,-125.2 151.5,-125.2 151.5,-103.2 84.5,-103.2"/>
<text text-anchor="start" x="87.5" y="-110.9" font-family="Helvetica,sans-Serif" font-size="11.00" fill="#000000">int[10]</text>
<polygon fill="none" stroke="#000000" points="10.5,-81.2 10.5,-103.2 84.5,-103.2 84.5,-81.2 10.5,-81.2"/>
<text text-anchor="start" x="30.5" y="-88.3" font-family="Helvetica,sans-Serif" font-size="11.00" fill="#000000">titre</text>
<polygon fill="none" stroke="#000000" points="84.5,-81.2 84.5,-103.2 151.5,-103.2 151.5,-81.2 84.5,-81.2"/>
<text text-anchor="start" x="87.4365" y="-88.9" font-family="Helvetica,sans-Serif" font-size="11.00" fill="#000000">varchar[255]</text>
<polygon fill="none" stroke="#000000" points="10.5,-59.2 10.5,-81.2 84.5,-81.2 84.5,-59.2 10.5,-59.2"/>
<text text-anchor="start" x="30.5" y="-66.3" font-family="Helvetica,sans-Serif" font-size="11.00" fill="#000000">slug</text>
<polygon fill="none" stroke="#000000" points="84.5,-59.2 84.5,-81.2 151.5,-81.2 151.5,-59.2 84.5,-59.2"/>
<text text-anchor="start" x="87.4365" y="-66.9" font-family="Helvetica,sans-Serif" font-size="11.00" fill="#000000">varchar[255]</text>
<polygon fill="#ffffff" stroke="transparent" points="10.5,-40.2 10.5,-59.2 38.5,-59.2 38.5,-40.2 10.5,-40.2"/>
<polygon fill="none" stroke="#000000" points="10.5,-40.2 10.5,-59.2 38.5,-59.2 38.5,-40.2 10.5,-40.2"/>
<text text-anchor="start" x="13.5" y="-46.3" font-family="Helvetica,sans-Serif" font-size="11.00" fill="#000000">&lt; 0</text>
<polygon fill="#ffffff" stroke="transparent" points="38.5,-40.2 38.5,-59.2 84.5,-59.2 84.5,-40.2 38.5,-40.2"/>
<polygon fill="none" stroke="#000000" points="38.5,-40.2 38.5,-59.2 84.5,-59.2 84.5,-40.2 38.5,-40.2"/>
<text text-anchor="start" x="49.1105" y="-46.3" font-family="Helvetica,sans-Serif" font-size="11.00" fill="#000000">9 rows</text>
<polygon fill="#ffffff" stroke="transparent" points="84.5,-40.2 84.5,-59.2 151.5,-59.2 151.5,-40.2 84.5,-40.2"/>
<polygon fill="none" stroke="#000000" points="84.5,-40.2 84.5,-59.2 151.5,-59.2 151.5,-40.2 84.5,-40.2"/>
<text text-anchor="start" x="132.9053" y="-46.3" font-family="Helvetica,sans-Serif" font-size="11.00" fill="#000000">1 &gt;</text>
<polygon fill="none" stroke="#000000" stroke-width="2" points="9,-39.2 9,-149.2 152,-149.2 152,-39.2 9,-39.2"/>
</a>
</g>
</g>
<!-- article&#45;&gt;categorie -->
<g id="edge1" class="edge">
<title>article:w&#45;&gt;categorie:e</title>
<path fill="none" stroke="#000000" d="M187.776,-114.2C175.7815,-114.2 168.3229,-114.2 151.5,-114.2"/>
<polygon fill="#000000" stroke="#000000" points="194.5,-114.2001 202.5,-117.8 198.5,-114.2 202.5,-114.2 202.5,-114.2 202.5,-114.2 198.5,-114.2 202.5,-110.6 194.5,-114.2001 194.5,-114.2001"/>
<ellipse fill="none" stroke="#000000" cx="191.3" cy="-114.2001" rx="3.2" ry="3.2"/>
</g>
</g>
</svg>
