<?xml version="1.0" encoding="UTF-8" standalone="no"?>
<!DOCTYPE svg PUBLIC "-//W3C//DTD SVG 1.1//EN"
 "http://www.w3.org/Graphics/SVG/1.1/DTD/svg11.dtd">
<!-- Generated by graphviz version 2.40.1 (20161225.0304)
 -->
<!-- Title: oneDegreeRelationshipsDiagram Pages: 1 -->
<svg width="337pt" height="259pt"
 viewBox="0.00 0.00 337.00 259.20" xmlns="http://www.w3.org/2000/svg" xmlns:xlink="http://www.w3.org/1999/xlink">
<g id="graph0" class="graph" transform="scale(1 1) rotate(0) translate(4 255.2)">
<title>oneDegreeRelationshipsDiagram</title>
<polygon fill="#ffffff" stroke="transparent" points="-4,4 -4,-255.2 333,-255.2 333,4 -4,4"/>
<text text-anchor="middle" x="72.4936" y="-7.3" font-family="Helvetica,sans-Serif" font-size="11.00" fill="#000000">Generated by SchemaSpy</text>
<!-- commentaire -->
<g id="node1" class="node">
<title>commentaire</title>
<g id="a_node1"><a xlink:href="../../tables/commentaire.html" xlink:title="commentaire" target="_top">
<polygon fill="#ffffff" stroke="transparent" points="148,-62.7 148,-218.7 321,-218.7 321,-62.7 148,-62.7"/>
<polygon fill="#f5f5f5" stroke="transparent" points="150.5,-193.7 150.5,-216.7 319.5,-216.7 319.5,-193.7 150.5,-193.7"/>
<polygon fill="none" stroke="#000000" points="150.5,-193.7 150.5,-216.7 319.5,-216.7 319.5,-193.7 150.5,-193.7"/>
<text text-anchor="start" x="155.5" y="-202.8" font-family="Helvetica,sans-Serif" font-weight="bold" font-size="11.00" fill="#000000">commentaire</text>
<text text-anchor="start" x="284.5437" y="-201.8" font-family="Helvetica,sans-Serif" font-size="11.00" fill="#000000">[table]</text>
<polygon fill="none" stroke="#000000" points="150.5,-171.7 150.5,-193.7 252.5,-193.7 252.5,-171.7 150.5,-171.7"/>
<image xlink:href="../../images/primaryKeys.png" width="11px" height="12px" preserveAspectRatio="xMinYMin meet" x="155.5" y="-188.7"/>
<text text-anchor="start" x="170.5" y="-178.8" font-family="Helvetica,sans-Serif" font-size="11.00" fill="#000000">id</text>
<polygon fill="none" stroke="#000000" points="252.5,-171.7 252.5,-193.7 319.5,-193.7 319.5,-171.7 252.5,-171.7"/>
<text text-anchor="start" x="255.5" y="-179.4" font-family="Helvetica,sans-Serif" font-size="11.00" fill="#000000">int[10]</text>
<polygon fill="#ffffff" stroke="transparent" points="150.5,-149.7 150.5,-171.7 252.5,-171.7 252.5,-149.7 150.5,-149.7"/>
<polygon fill="none" stroke="#000000" points="150.5,-149.7 150.5,-171.7 252.5,-171.7 252.5,-149.7 150.5,-149.7"/>
<image xlink:href="../../images/foreignKeys.png" width="11px" height="12px" preserveAspectRatio="xMinYMin meet" x="155.5" y="-166.7"/>
<text text-anchor="start" x="170.5" y="-156.8" font-family="Helvetica,sans-Serif" font-size="11.00" fill="#000000">article_id</text>
<polygon fill="none" stroke="#000000" points="252.5,-149.7 252.5,-171.7 319.5,-171.7 319.5,-149.7 252.5,-149.7"/>
<text text-anchor="start" x="255.5" y="-157.4" font-family="Helvetica,sans-Serif" font-size="11.00" fill="#000000">int[10]</text>
<polygon fill="#ffffff" stroke="transparent" points="150.5,-127.7 150.5,-149.7 252.5,-149.7 252.5,-127.7 150.5,-127.7"/>
<polygon fill="none" stroke="#000000" points="150.5,-127.7 150.5,-149.7 252.5,-149.7 252.5,-127.7 150.5,-127.7"/>
<image xlink:href="../../images/foreignKeys.png" width="11px" height="12px" preserveAspectRatio="xMinYMin meet" x="155.5" y="-144.7"/>
<text text-anchor="start" x="170.5" y="-134.8" font-family="Helvetica,sans-Serif" font-size="11.00" fill="#000000">utilisateurs_id</text>
<polygon fill="none" stroke="#000000" points="252.5,-127.7 252.5,-149.7 319.5,-149.7 319.5,-127.7 252.5,-127.7"/>
<text text-anchor="start" x="255.5" y="-135.4" font-family="Helvetica,sans-Serif" font-size="11.00" fill="#000000">int[10]</text>
<polygon fill="none" stroke="#000000" points="150.5,-105.7 150.5,-127.7 252.5,-127.7 252.5,-105.7 150.5,-105.7"/>
<text text-anchor="start" x="170.5" y="-112.8" font-family="Helvetica,sans-Serif" font-size="11.00" fill="#000000">contenu</text>
<polygon fill="none" stroke="#000000" points="252.5,-105.7 252.5,-127.7 319.5,-127.7 319.5,-105.7 252.5,-105.7"/>
<text text-anchor="start" x="255.4365" y="-113.4" font-family="Helvetica,sans-Serif" font-size="11.00" fill="#000000">varchar[255]</text>
<polygon fill="none" stroke="#000000" points="150.5,-83.7 150.5,-105.7 252.5,-105.7 252.5,-83.7 150.5,-83.7"/>
<text text-anchor="start" x="170.5" y="-90.8" font-family="Helvetica,sans-Serif" font-size="11.00" fill="#000000">created_at</text>
<polygon fill="none" stroke="#000000" points="252.5,-83.7 252.5,-105.7 319.5,-105.7 319.5,-83.7 252.5,-83.7"/>
<text text-anchor="start" x="255.5" y="-91.4" font-family="Helvetica,sans-Serif" font-size="11.00" fill="#000000">datetime[19]</text>
<polygon fill="#ffffff" stroke="transparent" points="150.5,-64.7 150.5,-83.7 189.5,-83.7 189.5,-64.7 150.5,-64.7"/>
<polygon fill="none" stroke="#000000" points="150.5,-64.7 150.5,-83.7 189.5,-83.7 189.5,-64.7 150.5,-64.7"/>
<text text-anchor="start" x="153.5" y="-70.8" font-family="Helvetica,sans-Serif" font-size="11.00" fill="#000000">&lt; 2</text>
<polygon fill="#ffffff" stroke="transparent" points="189.5,-64.7 189.5,-83.7 252.5,-83.7 252.5,-64.7 189.5,-64.7"/>
<polygon fill="none" stroke="#000000" points="189.5,-64.7 189.5,-83.7 252.5,-83.7 252.5,-64.7 189.5,-64.7"/>
<text text-anchor="start" x="210.9956" y="-70.8" font-family="Helvetica,sans-Serif" font-size="11.00" fill="#000000">50 rows</text>
<polygon fill="#ffffff" stroke="transparent" points="252.5,-64.7 252.5,-83.7 319.5,-83.7 319.5,-64.7 252.5,-64.7"/>
<polygon fill="none" stroke="#000000" points="252.5,-64.7 252.5,-83.7 319.5,-83.7 319.5,-64.7 252.5,-64.7"/>
<text text-anchor="start" x="300.9053" y="-70.8" font-family="Helvetica,sans-Serif" font-size="11.00" fill="#000000">0 &gt;</text>
<polygon fill="none" stroke="#000000" stroke-width="2" points="149,-63.7 149,-217.7 320,-217.7 320,-63.7 149,-63.7"/>
</a>
</g>
</g>
<!-- article -->
<g id="node2" class="node">
<title>article</title>
<g id="a_node2"><a xlink:href="../../tables/article.html" xlink:title="article" target="_top">
<polygon fill="#ffffff" stroke="transparent" points="8,-142.2 8,-247.2 99,-247.2 99,-142.2 8,-142.2"/>
<polygon fill="#f5f5f5" stroke="transparent" points="8.5,-223.7 8.5,-246.7 99.5,-246.7 99.5,-223.7 8.5,-223.7"/>
<polygon fill="none" stroke="#000000" points="8.5,-223.7 8.5,-246.7 99.5,-246.7 99.5,-223.7 8.5,-223.7"/>
<text text-anchor="start" x="13.5" y="-232.8" font-family="Helvetica,sans-Serif" font-weight="bold" font-size="11.00" fill="#000000">article</text>
<text text-anchor="start" x="64.5437" y="-231.8" font-family="Helvetica,sans-Serif" font-size="11.00" fill="#000000">[table]</text>
<polygon fill="none" stroke="#000000" points="8.5,-201.7 8.5,-223.7 99.5,-223.7 99.5,-201.7 8.5,-201.7"/>
<image xlink:href="../../images/primaryKeys.png" width="11px" height="12px" preserveAspectRatio="xMinYMin meet" x="13.5" y="-218.7"/>
<text text-anchor="start" x="28.5" y="-208.8" font-family="Helvetica,sans-Serif" font-size="11.00" fill="#000000">id</text>
<polygon fill="#ffffff" stroke="transparent" points="8.5,-179.7 8.5,-201.7 99.5,-201.7 99.5,-179.7 8.5,-179.7"/>
<polygon fill="none" stroke="#000000" points="8.5,-179.7 8.5,-201.7 99.5,-201.7 99.5,-179.7 8.5,-179.7"/>
<image xlink:href="../../images/foreignKeys.png" width="11px" height="12px" preserveAspectRatio="xMinYMin meet" x="13.5" y="-196.7"/>
<text text-anchor="start" x="28.5" y="-186.8" font-family="Helvetica,sans-Serif" font-size="11.00" fill="#000000">categorie_id</text>
<polygon fill="none" stroke="#000000" points="8.5,-160.7 8.5,-179.7 99.5,-179.7 99.5,-160.7 8.5,-160.7"/>
<text text-anchor="start" x="11.5" y="-166.8" font-family="Helvetica,sans-Serif" font-size="11.00" fill="#000000">...</text>
<polygon fill="#ffffff" stroke="transparent" points="8.5,-141.7 8.5,-160.7 31.5,-160.7 31.5,-141.7 8.5,-141.7"/>
<polygon fill="none" stroke="#000000" points="8.5,-141.7 8.5,-160.7 31.5,-160.7 31.5,-141.7 8.5,-141.7"/>
<text text-anchor="start" x="11.5" y="-147.8" font-family="Helvetica,sans-Serif" font-size="11.00" fill="#000000">&lt; 1</text>
<polygon fill="#ffffff" stroke="transparent" points="31.5,-141.7 31.5,-160.7 76.5,-160.7 76.5,-141.7 31.5,-141.7"/>
<polygon fill="none" stroke="#000000" points="31.5,-141.7 31.5,-160.7 76.5,-160.7 76.5,-141.7 31.5,-141.7"/>
<text text-anchor="start" x="34.9956" y="-147.8" font-family="Helvetica,sans-Serif" font-size="11.00" fill="#000000">50 rows</text>
<polygon fill="#ffffff" stroke="transparent" points="76.5,-141.7 76.5,-160.7 99.5,-160.7 99.5,-141.7 76.5,-141.7"/>
<polygon fill="none" stroke="#000000" points="76.5,-141.7 76.5,-160.7 99.5,-160.7 99.5,-141.7 76.5,-141.7"/>
<text text-anchor="start" x="80.9053" y="-147.8" font-family="Helvetica,sans-Serif" font-size="11.00" fill="#000000">1 &gt;</text>
</a>
</g>
</g>
<!-- commentaire&#45;&gt;article -->
<g id="edge1" class="edge">
<title>commentaire:w&#45;&gt;article:e</title>
<path fill="none" stroke="#000000" d="M136.5468,-165.4988C121.661,-178.3719 125.8017,-212.7 99.5,-212.7"/>
<polygon fill="#000000" stroke="#000000" points="142.9349,-163.3018 151.6708,-164.1043 146.7175,-162.0009 150.5,-160.7 150.5,-160.7 150.5,-160.7 146.7175,-162.0009 149.3292,-157.2957 142.9349,-163.3018 142.9349,-163.3018"/>
<ellipse fill="none" stroke="#000000" cx="139.9089" cy="-164.3426" rx="3.2" ry="3.2"/>
</g>
<!-- utilisateur -->
<g id="node3" class="node">
<title>utilisateur</title>
<g id="a_node3"><a xlink:href="../../tables/utilisateur.html" xlink:title="utilisateur" target="_top">
<polygon fill="#ffffff" stroke="transparent" points="8.5,-38.2 8.5,-121.2 98.5,-121.2 98.5,-38.2 8.5,-38.2"/>
<polygon fill="#f5f5f5" stroke="transparent" points="8.5,-97.7 8.5,-120.7 98.5,-120.7 98.5,-97.7 8.5,-97.7"/>
<polygon fill="none" stroke="#000000" points="8.5,-97.7 8.5,-120.7 98.5,-120.7 98.5,-97.7 8.5,-97.7"/>
<text text-anchor="start" x="13.471" y="-106.8" font-family="Helvetica,sans-Serif" font-weight="bold" font-size="11.00" fill="#000000">utilisateur</text>
<text text-anchor="start" x="64.0219" y="-105.8" font-family="Helvetica,sans-Serif" font-size="11.00" fill="#000000">[table]</text>
<polygon fill="none" stroke="#000000" points="8.5,-75.7 8.5,-97.7 98.5,-97.7 98.5,-75.7 8.5,-75.7"/>
<image xlink:href="../../images/primaryKeys.png" width="11px" height="12px" preserveAspectRatio="xMinYMin meet" x="13.5" y="-92.7"/>
<text text-anchor="start" x="34.5" y="-82.8" font-family="Helvetica,sans-Serif" font-size="11.00" fill="#000000">id</text>
<polygon fill="none" stroke="#000000" points="8.5,-56.7 8.5,-75.7 98.5,-75.7 98.5,-56.7 8.5,-56.7"/>
<text text-anchor="start" x="11.5" y="-62.8" font-family="Helvetica,sans-Serif" font-size="11.00" fill="#000000">...</text>
<polygon fill="#ffffff" stroke="transparent" points="8.5,-37.7 8.5,-56.7 26.5,-56.7 26.5,-37.7 8.5,-37.7"/>
<polygon fill="none" stroke="#000000" points="8.5,-37.7 8.5,-56.7 26.5,-56.7 26.5,-37.7 8.5,-37.7"/>
<text text-anchor="start" x="11.5" y="-43.8" font-family="Helvetica,sans-Serif" font-size="11.00" fill="#000000"> &#160;</text>
<polygon fill="#ffffff" stroke="transparent" points="26.5,-37.7 26.5,-56.7 73.5,-56.7 73.5,-37.7 26.5,-37.7"/>
<polygon fill="none" stroke="#000000" points="26.5,-37.7 26.5,-56.7 73.5,-56.7 73.5,-37.7 26.5,-37.7"/>
<text text-anchor="start" x="31.9956" y="-43.8" font-family="Helvetica,sans-Serif" font-size="11.00" fill="#000000">50 rows</text>
<polygon fill="#ffffff" stroke="transparent" points="73.5,-37.7 73.5,-56.7 98.5,-56.7 98.5,-37.7 73.5,-37.7"/>
<polygon fill="none" stroke="#000000" points="73.5,-37.7 73.5,-56.7 98.5,-56.7 98.5,-37.7 73.5,-37.7"/>
<text text-anchor="start" x="79.9053" y="-43.8" font-family="Helvetica,sans-Serif" font-size="11.00" fill="#000000">1 &gt;</text>
</a>
</g>
</g>
<!-- commentaire&#45;&gt;utilisateur -->
<g id="edge2" class="edge">
<title>commentaire:w&#45;&gt;utilisateur:e</title>
<path fill="none" stroke="#000000" d="M136.3652,-133.9012C121.21,-121.0281 125.0558,-86.7 98.5,-86.7"/>
<polygon fill="#000000" stroke="#000000" points="142.9247,-136.1281 149.3427,-142.1089 146.7123,-137.4141 150.5,-138.7 150.5,-138.7 150.5,-138.7 146.7123,-137.4141 151.6573,-135.2911 142.9247,-136.1281 142.9247,-136.1281"/>
<ellipse fill="none" stroke="#000000" cx="139.8945" cy="-135.0994" rx="3.2" ry="3.2"/>
</g>
</g>
</svg>
