<?xml version="1.0" encoding="UTF-8" standalone="no"?>
<!DOCTYPE svg PUBLIC "-//W3C//DTD SVG 1.1//EN"
 "http://www.w3.org/Graphics/SVG/1.1/DTD/svg11.dtd">
<!-- Generated by graphviz version 2.40.1 (20161225.0304)
 -->
<!-- Title: twoDegreesRelationshipsDiagram Pages: 1 -->
<svg width="328pt" height="267pt"
 viewBox="0.00 0.00 328.00 266.70" xmlns="http://www.w3.org/2000/svg" xmlns:xlink="http://www.w3.org/1999/xlink">
<g id="graph0" class="graph" transform="scale(1 1) rotate(0) translate(4 262.7)">
<title>twoDegreesRelationshipsDiagram</title>
<polygon fill="#ffffff" stroke="transparent" points="-4,4 -4,-262.7 324,-262.7 324,4 -4,4"/>
<text text-anchor="middle" x="72.4936" y="-7.3" font-family="Helvetica,sans-Serif" font-size="11.00" fill="#000000">Generated by SchemaSpy</text>
<!-- commentaire -->
<g id="node1" class="node">
<title>commentaire</title>
<g id="a_node1"><a xlink:href="../../tables/commentaire.html" xlink:title="commentaire" target="_top">
<polygon fill="#ffffff" stroke="transparent" points="206,-118.7 206,-245.7 312,-245.7 312,-118.7 206,-118.7"/>
<polygon fill="#f5f5f5" stroke="transparent" points="206,-222.2 206,-245.2 312,-245.2 312,-222.2 206,-222.2"/>
<polygon fill="none" stroke="#000000" points="206,-222.2 206,-245.2 312,-245.2 312,-222.2 206,-222.2"/>
<text text-anchor="start" x="210.721" y="-231.3" font-family="Helvetica,sans-Serif" font-weight="bold" font-size="11.00" fill="#000000">commentaire</text>
<text text-anchor="start" x="277.5219" y="-230.3" font-family="Helvetica,sans-Serif" font-size="11.00" fill="#000000">[table]</text>
<polygon fill="none" stroke="#000000" points="206,-200.2 206,-222.2 312,-222.2 312,-200.2 206,-200.2"/>
<image xlink:href="../../images/primaryKeys.png" width="11px" height="12px" preserveAspectRatio="xMinYMin meet" x="211" y="-217.2"/>
<text text-anchor="start" x="228" y="-207.3" font-family="Helvetica,sans-Serif" font-size="11.00" fill="#000000">id</text>
<polygon fill="#ffffff" stroke="transparent" points="206,-178.2 206,-200.2 312,-200.2 312,-178.2 206,-178.2"/>
<polygon fill="none" stroke="#000000" points="206,-178.2 206,-200.2 312,-200.2 312,-178.2 206,-178.2"/>
<image xlink:href="../../images/foreignKeys.png" width="11px" height="12px" preserveAspectRatio="xMinYMin meet" x="211" y="-195.2"/>
<text text-anchor="start" x="228" y="-185.3" font-family="Helvetica,sans-Serif" font-size="11.00" fill="#000000">article_id</text>
<polygon fill="#ffffff" stroke="transparent" points="206,-156.2 206,-178.2 312,-178.2 312,-156.2 206,-156.2"/>
<polygon fill="none" stroke="#000000" points="206,-156.2 206,-178.2 312,-178.2 312,-156.2 206,-156.2"/>
<image xlink:href="../../images/foreignKeys.png" width="11px" height="12px" preserveAspectRatio="xMinYMin meet" x="211" y="-173.2"/>
<text text-anchor="start" x="228" y="-163.3" font-family="Helvetica,sans-Serif" font-size="11.00" fill="#000000">utilisateurs_id</text>
<polygon fill="none" stroke="#000000" points="206,-137.2 206,-156.2 312,-156.2 312,-137.2 206,-137.2"/>
<text text-anchor="start" x="209" y="-143.3" font-family="Helvetica,sans-Serif" font-size="11.00" fill="#000000">...</text>
<polygon fill="#ffffff" stroke="transparent" points="206,-118.2 206,-137.2 241,-137.2 241,-118.2 206,-118.2"/>
<polygon fill="none" stroke="#000000" points="206,-118.2 206,-137.2 241,-137.2 241,-118.2 206,-118.2"/>
<text text-anchor="start" x="209" y="-124.3" font-family="Helvetica,sans-Serif" font-size="11.00" fill="#000000">&lt; 2</text>
<polygon fill="#ffffff" stroke="transparent" points="241,-118.2 241,-137.2 292,-137.2 292,-118.2 241,-118.2"/>
<polygon fill="none" stroke="#000000" points="241,-118.2 241,-137.2 292,-137.2 292,-118.2 241,-118.2"/>
<text text-anchor="start" x="250.4956" y="-124.3" font-family="Helvetica,sans-Serif" font-size="11.00" fill="#000000">50 rows</text>
<polygon fill="#ffffff" stroke="transparent" points="292,-118.2 292,-137.2 312,-137.2 312,-118.2 292,-118.2"/>
<polygon fill="none" stroke="#000000" points="292,-118.2 292,-137.2 312,-137.2 312,-118.2 292,-118.2"/>
<text text-anchor="start" x="302.8862" y="-124.3" font-family="Helvetica,sans-Serif" font-size="11.00" fill="#000000"> &#160;</text>
</a>
</g>
</g>
<!-- article -->
<g id="node2" class="node">
<title>article</title>
<g id="a_node2"><a xlink:href="../../tables/article.html" xlink:title="article" target="_top">
<polygon fill="#ffffff" stroke="transparent" points="39.5,-193.7 39.5,-254.7 125.5,-254.7 125.5,-193.7 39.5,-193.7"/>
<polygon fill="#f5f5f5" stroke="transparent" points="39.5,-231.2 39.5,-254.2 125.5,-254.2 125.5,-231.2 39.5,-231.2"/>
<polygon fill="none" stroke="#000000" points="39.5,-231.2 39.5,-254.2 125.5,-254.2 125.5,-231.2 39.5,-231.2"/>
<text text-anchor="start" x="44.5" y="-240.3" font-family="Helvetica,sans-Serif" font-weight="bold" font-size="11.00" fill="#000000">article</text>
<text text-anchor="start" x="90.5437" y="-239.3" font-family="Helvetica,sans-Serif" font-size="11.00" fill="#000000">[table]</text>
<polygon fill="none" stroke="#000000" points="39.5,-212.2 39.5,-231.2 125.5,-231.2 125.5,-212.2 39.5,-212.2"/>
<text text-anchor="start" x="42.5" y="-218.3" font-family="Helvetica,sans-Serif" font-size="11.00" fill="#000000">...</text>
<polygon fill="#ffffff" stroke="transparent" points="39.5,-193.2 39.5,-212.2 60.5,-212.2 60.5,-193.2 39.5,-193.2"/>
<polygon fill="none" stroke="#000000" points="39.5,-193.2 39.5,-212.2 60.5,-212.2 60.5,-193.2 39.5,-193.2"/>
<text text-anchor="start" x="42.2027" y="-199.3" font-family="Helvetica,sans-Serif" font-size="11.00" fill="#000000">&lt; 1</text>
<polygon fill="#ffffff" stroke="transparent" points="60.5,-193.2 60.5,-212.2 104.5,-212.2 104.5,-193.2 60.5,-193.2"/>
<polygon fill="none" stroke="#000000" points="60.5,-193.2 60.5,-212.2 104.5,-212.2 104.5,-193.2 60.5,-193.2"/>
<text text-anchor="start" x="63.2478" y="-199.3" font-family="Helvetica,sans-Serif" font-size="11.00" fill="#000000">50 rows</text>
<polygon fill="#ffffff" stroke="transparent" points="104.5,-193.2 104.5,-212.2 125.5,-212.2 125.5,-193.2 104.5,-193.2"/>
<polygon fill="none" stroke="#000000" points="104.5,-193.2 104.5,-212.2 125.5,-212.2 125.5,-193.2 104.5,-193.2"/>
<text text-anchor="start" x="107.2027" y="-199.3" font-family="Helvetica,sans-Serif" font-size="11.00" fill="#000000">1 &gt;</text>
</a>
</g>
</g>
<!-- commentaire&#45;&gt;article -->
<g id="edge1" class="edge">
<title>commentaire:w&#45;&gt;article:e</title>
<path fill="none" stroke="#000000" d="M191.6393,-190.9205C165.823,-197.5672 158.5867,-221.2 125.5,-221.2"/>
<polygon fill="#000000" stroke="#000000" points="198.0568,-190.1517 206.4283,-192.7744 202.0284,-189.6758 206,-189.2 206,-189.2 206,-189.2 202.0284,-189.6758 205.5717,-185.6256 198.0568,-190.1517 198.0568,-190.1517"/>
<ellipse fill="none" stroke="#000000" cx="194.8795" cy="-190.5323" rx="3.2" ry="3.2"/>
</g>
<!-- utilisateur -->
<g id="node3" class="node">
<title>utilisateur</title>
<g id="a_node3"><a xlink:href="../../tables/utilisateur.html" xlink:title="utilisateur" target="_top">
<polygon fill="#ffffff" stroke="transparent" points="8,-38.2 8,-172.2 157,-172.2 157,-38.2 8,-38.2"/>
<polygon fill="#f5f5f5" stroke="transparent" points="10.5,-147.2 10.5,-170.2 155.5,-170.2 155.5,-147.2 10.5,-147.2"/>
<polygon fill="none" stroke="#000000" points="10.5,-147.2 10.5,-170.2 155.5,-170.2 155.5,-147.2 10.5,-147.2"/>
<text text-anchor="start" x="15.5" y="-156.3" font-family="Helvetica,sans-Serif" font-weight="bold" font-size="11.00" fill="#000000">utilisateur</text>
<text text-anchor="start" x="120.5437" y="-155.3" font-family="Helvetica,sans-Serif" font-size="11.00" fill="#000000">[table]</text>
<polygon fill="none" stroke="#000000" points="10.5,-125.2 10.5,-147.2 88.5,-147.2 88.5,-125.2 10.5,-125.2"/>
<image xlink:href="../../images/primaryKeys.png" width="11px" height="12px" preserveAspectRatio="xMinYMin meet" x="15.5" y="-142.2"/>
<text text-anchor="start" x="30.5" y="-132.3" font-family="Helvetica,sans-Serif" font-size="11.00" fill="#000000">id</text>
<polygon fill="none" stroke="#000000" points="88.5,-125.2 88.5,-147.2 155.5,-147.2 155.5,-125.2 88.5,-125.2"/>
<text text-anchor="start" x="91.5" y="-132.9" font-family="Helvetica,sans-Serif" font-size="11.00" fill="#000000">int[10]</text>
<polygon fill="none" stroke="#000000" points="10.5,-103.2 10.5,-125.2 88.5,-125.2 88.5,-103.2 10.5,-103.2"/>
<text text-anchor="start" x="30.5" y="-110.3" font-family="Helvetica,sans-Serif" font-size="11.00" fill="#000000">prenom</text>
<polygon fill="none" stroke="#000000" points="88.5,-103.2 88.5,-125.2 155.5,-125.2 155.5,-103.2 88.5,-103.2"/>
<text text-anchor="start" x="91.4365" y="-110.9" font-family="Helvetica,sans-Serif" font-size="11.00" fill="#000000">varchar[255]</text>
<polygon fill="none" stroke="#000000" points="10.5,-81.2 10.5,-103.2 88.5,-103.2 88.5,-81.2 10.5,-81.2"/>
<text text-anchor="start" x="30.5" y="-88.3" font-family="Helvetica,sans-Serif" font-size="11.00" fill="#000000">nom</text>
<polygon fill="none" stroke="#000000" points="88.5,-81.2 88.5,-103.2 155.5,-103.2 155.5,-81.2 88.5,-81.2"/>
<text text-anchor="start" x="91.4365" y="-88.9" font-family="Helvetica,sans-Serif" font-size="11.00" fill="#000000">varchar[255]</text>
<polygon fill="none" stroke="#000000" points="10.5,-59.2 10.5,-81.2 88.5,-81.2 88.5,-59.2 10.5,-59.2"/>
<text text-anchor="start" x="30.5" y="-66.3" font-family="Helvetica,sans-Serif" font-size="11.00" fill="#000000">pseudo</text>
<polygon fill="none" stroke="#000000" points="88.5,-59.2 88.5,-81.2 155.5,-81.2 155.5,-59.2 88.5,-59.2"/>
<text text-anchor="start" x="91.4365" y="-66.9" font-family="Helvetica,sans-Serif" font-size="11.00" fill="#000000">varchar[255]</text>
<polygon fill="#ffffff" stroke="transparent" points="10.5,-40.2 10.5,-59.2 37.5,-59.2 37.5,-40.2 10.5,-40.2"/>
<polygon fill="none" stroke="#000000" points="10.5,-40.2 10.5,-59.2 37.5,-59.2 37.5,-40.2 10.5,-40.2"/>
<text text-anchor="start" x="13.5" y="-46.3" font-family="Helvetica,sans-Serif" font-size="11.00" fill="#000000">&lt; 0</text>
<polygon fill="#ffffff" stroke="transparent" points="37.5,-40.2 37.5,-59.2 88.5,-59.2 88.5,-40.2 37.5,-40.2"/>
<polygon fill="none" stroke="#000000" points="37.5,-40.2 37.5,-59.2 88.5,-59.2 88.5,-40.2 37.5,-40.2"/>
<text text-anchor="start" x="46.9956" y="-46.3" font-family="Helvetica,sans-Serif" font-size="11.00" fill="#000000">50 rows</text>
<polygon fill="#ffffff" stroke="transparent" points="88.5,-40.2 88.5,-59.2 155.5,-59.2 155.5,-40.2 88.5,-40.2"/>
<polygon fill="none" stroke="#000000" points="88.5,-40.2 88.5,-59.2 155.5,-59.2 155.5,-40.2 88.5,-40.2"/>
<text text-anchor="start" x="136.9053" y="-46.3" font-family="Helvetica,sans-Serif" font-size="11.00" fill="#000000">1 &gt;</text>
<polygon fill="none" stroke="#000000" stroke-width="2" points="9,-39.2 9,-171.2 156,-171.2 156,-39.2 9,-39.2"/>
</a>
</g>
</g>
<!-- commentaire&#45;&gt;utilisateur -->
<g id="edge2" class="edge">
<title>commentaire:w&#45;&gt;utilisateur:e</title>
<path fill="none" stroke="#000000" d="M191.8267,-163.1473C179.1849,-154.7444 175.8692,-136.2 155.5,-136.2"/>
<polygon fill="#000000" stroke="#000000" points="198.3083,-165.0006 205.0103,-170.6613 202.1541,-166.1003 206,-167.2 206,-167.2 206,-167.2 202.1541,-166.1003 206.9897,-163.7387 198.3083,-165.0006 198.3083,-165.0006"/>
<ellipse fill="none" stroke="#000000" cx="195.2316" cy="-164.1208" rx="3.2" ry="3.2"/>
</g>
</g>
</svg>
