<?xml version="1.0" encoding="UTF-8" standalone="no"?>
<!DOCTYPE svg PUBLIC "-//W3C//DTD SVG 1.1//EN"
 "http://www.w3.org/Graphics/SVG/1.1/DTD/svg11.dtd">
<!-- Generated by graphviz version 2.40.1 (20161225.0304)
 -->
<!-- Title: compactRelationshipsDiagram Pages: 1 -->
<svg width="407pt" height="259pt"
 viewBox="0.00 0.00 407.00 259.20" xmlns="http://www.w3.org/2000/svg" xmlns:xlink="http://www.w3.org/1999/xlink">
<g id="graph0" class="graph" transform="scale(1 1) rotate(0) translate(4 255.2)">
<title>compactRelationshipsDiagram</title>
<polygon fill="#ffffff" stroke="transparent" points="-4,4 -4,-255.2 403,-255.2 403,4 -4,4"/>
<text text-anchor="middle" x="72.4936" y="-7.3" font-family="Helvetica,sans-Serif" font-size="11.00" fill="#000000">Generated by SchemaSpy</text>
<!-- article -->
<g id="node1" class="node">
<title>article</title>
<g id="a_node1"><a xlink:href="../../tables/article.html" xlink:title="article" target="_top">
<polygon fill="#ffffff" stroke="transparent" points="145,-142.2 145,-247.2 236,-247.2 236,-142.2 145,-142.2"/>
<polygon fill="#f5f5f5" stroke="transparent" points="145.5,-223.7 145.5,-246.7 236.5,-246.7 236.5,-223.7 145.5,-223.7"/>
<polygon fill="none" stroke="#000000" points="145.5,-223.7 145.5,-246.7 236.5,-246.7 236.5,-223.7 145.5,-223.7"/>
<text text-anchor="start" x="150.5" y="-232.8" font-family="Helvetica,sans-Serif" font-weight="bold" font-size="11.00" fill="#000000">article</text>
<text text-anchor="start" x="201.5437" y="-231.8" font-family="Helvetica,sans-Serif" font-size="11.00" fill="#000000">[table]</text>
<polygon fill="none" stroke="#000000" points="145.5,-201.7 145.5,-223.7 236.5,-223.7 236.5,-201.7 145.5,-201.7"/>
<image xlink:href="../../images/primaryKeys.png" width="11px" height="12px" preserveAspectRatio="xMinYMin meet" x="150.5" y="-218.7"/>
<text text-anchor="start" x="165.5" y="-208.8" font-family="Helvetica,sans-Serif" font-size="11.00" fill="#000000">id</text>
<polygon fill="#ffffff" stroke="transparent" points="145.5,-179.7 145.5,-201.7 236.5,-201.7 236.5,-179.7 145.5,-179.7"/>
<polygon fill="none" stroke="#000000" points="145.5,-179.7 145.5,-201.7 236.5,-201.7 236.5,-179.7 145.5,-179.7"/>
<image xlink:href="../../images/foreignKeys.png" width="11px" height="12px" preserveAspectRatio="xMinYMin meet" x="150.5" y="-196.7"/>
<text text-anchor="start" x="165.5" y="-186.8" font-family="Helvetica,sans-Serif" font-size="11.00" fill="#000000">categorie_id</text>
<polygon fill="none" stroke="#000000" points="145.5,-160.7 145.5,-179.7 236.5,-179.7 236.5,-160.7 145.5,-160.7"/>
<text text-anchor="start" x="148.5" y="-166.8" font-family="Helvetica,sans-Serif" font-size="11.00" fill="#000000">...</text>
<polygon fill="#ffffff" stroke="transparent" points="145.5,-141.7 145.5,-160.7 168.5,-160.7 168.5,-141.7 145.5,-141.7"/>
<polygon fill="none" stroke="#000000" points="145.5,-141.7 145.5,-160.7 168.5,-160.7 168.5,-141.7 145.5,-141.7"/>
<text text-anchor="start" x="148.5" y="-147.8" font-family="Helvetica,sans-Serif" font-size="11.00" fill="#000000">&lt; 1</text>
<polygon fill="#ffffff" stroke="transparent" points="168.5,-141.7 168.5,-160.7 213.5,-160.7 213.5,-141.7 168.5,-141.7"/>
<polygon fill="none" stroke="#000000" points="168.5,-141.7 168.5,-160.7 213.5,-160.7 213.5,-141.7 168.5,-141.7"/>
<text text-anchor="start" x="171.9956" y="-147.8" font-family="Helvetica,sans-Serif" font-size="11.00" fill="#000000">50 rows</text>
<polygon fill="#ffffff" stroke="transparent" points="213.5,-141.7 213.5,-160.7 236.5,-160.7 236.5,-141.7 213.5,-141.7"/>
<polygon fill="none" stroke="#000000" points="213.5,-141.7 213.5,-160.7 236.5,-160.7 236.5,-141.7 213.5,-141.7"/>
<text text-anchor="start" x="217.9053" y="-147.8" font-family="Helvetica,sans-Serif" font-size="11.00" fill="#000000">1 &gt;</text>
</a>
</g>
</g>
<!-- categorie -->
<g id="node2" class="node">
<title>categorie</title>
<g id="a_node2"><a xlink:href="../../tables/categorie.html" xlink:title="categorie" target="_top">
<polygon fill="#ffffff" stroke="transparent" points="8,-142.2 8,-225.2 96,-225.2 96,-142.2 8,-142.2"/>
<polygon fill="#f5f5f5" stroke="transparent" points="8,-201.7 8,-224.7 96,-224.7 96,-201.7 8,-201.7"/>
<polygon fill="none" stroke="#000000" points="8,-201.7 8,-224.7 96,-224.7 96,-201.7 8,-201.7"/>
<text text-anchor="start" x="12.8829" y="-210.8" font-family="Helvetica,sans-Serif" font-weight="bold" font-size="11.00" fill="#000000">categorie</text>
<text text-anchor="start" x="61.5219" y="-209.8" font-family="Helvetica,sans-Serif" font-size="11.00" fill="#000000">[table]</text>
<polygon fill="none" stroke="#000000" points="8,-179.7 8,-201.7 96,-201.7 96,-179.7 8,-179.7"/>
<image xlink:href="../../images/primaryKeys.png" width="11px" height="12px" preserveAspectRatio="xMinYMin meet" x="13" y="-196.7"/>
<text text-anchor="start" x="35" y="-186.8" font-family="Helvetica,sans-Serif" font-size="11.00" fill="#000000">id</text>
<polygon fill="none" stroke="#000000" points="8,-160.7 8,-179.7 96,-179.7 96,-160.7 8,-160.7"/>
<text text-anchor="start" x="11" y="-166.8" font-family="Helvetica,sans-Serif" font-size="11.00" fill="#000000">...</text>
<polygon fill="#ffffff" stroke="transparent" points="8,-141.7 8,-160.7 28,-160.7 28,-141.7 8,-141.7"/>
<polygon fill="none" stroke="#000000" points="8,-141.7 8,-160.7 28,-160.7 28,-141.7 8,-141.7"/>
<text text-anchor="start" x="11" y="-147.8" font-family="Helvetica,sans-Serif" font-size="11.00" fill="#000000"> &#160;</text>
<polygon fill="#ffffff" stroke="transparent" points="28,-141.7 28,-160.7 70,-160.7 70,-141.7 28,-141.7"/>
<polygon fill="none" stroke="#000000" points="28,-141.7 28,-160.7 70,-160.7 70,-141.7 28,-141.7"/>
<text text-anchor="start" x="34.6105" y="-147.8" font-family="Helvetica,sans-Serif" font-size="11.00" fill="#000000">9 rows</text>
<polygon fill="#ffffff" stroke="transparent" points="70,-141.7 70,-160.7 96,-160.7 96,-141.7 70,-141.7"/>
<polygon fill="none" stroke="#000000" points="70,-141.7 70,-160.7 96,-160.7 96,-141.7 70,-141.7"/>
<text text-anchor="start" x="77.4053" y="-147.8" font-family="Helvetica,sans-Serif" font-size="11.00" fill="#000000">1 &gt;</text>
</a>
</g>
</g>
<!-- article&#45;&gt;categorie -->
<g id="edge1" class="edge">
<title>article:w&#45;&gt;categorie:e</title>
<path fill="none" stroke="#000000" d="M130.8428,-190.7C119.4139,-190.7 112.1563,-190.7 96,-190.7"/>
<polygon fill="#000000" stroke="#000000" points="137.5,-190.7001 145.5,-194.3 141.5,-190.7 145.5,-190.7 145.5,-190.7 145.5,-190.7 141.5,-190.7 145.5,-187.1 137.5,-190.7001 137.5,-190.7001"/>
<ellipse fill="none" stroke="#000000" cx="134.3" cy="-190.7001" rx="3.2" ry="3.2"/>
</g>
<!-- commentaire -->
<g id="node3" class="node">
<title>commentaire</title>
<g id="a_node3"><a xlink:href="../../tables/commentaire.html" xlink:title="commentaire" target="_top">
<polygon fill="#ffffff" stroke="transparent" points="285,-90.2 285,-217.2 391,-217.2 391,-90.2 285,-90.2"/>
<polygon fill="#f5f5f5" stroke="transparent" points="285,-193.7 285,-216.7 391,-216.7 391,-193.7 285,-193.7"/>
<polygon fill="none" stroke="#000000" points="285,-193.7 285,-216.7 391,-216.7 391,-193.7 285,-193.7"/>
<text text-anchor="start" x="289.721" y="-202.8" font-family="Helvetica,sans-Serif" font-weight="bold" font-size="11.00" fill="#000000">commentaire</text>
<text text-anchor="start" x="356.5219" y="-201.8" font-family="Helvetica,sans-Serif" font-size="11.00" fill="#000000">[table]</text>
<polygon fill="none" stroke="#000000" points="285,-171.7 285,-193.7 391,-193.7 391,-171.7 285,-171.7"/>
<image xlink:href="../../images/primaryKeys.png" width="11px" height="12px" preserveAspectRatio="xMinYMin meet" x="290" y="-188.7"/>
<text text-anchor="start" x="307" y="-178.8" font-family="Helvetica,sans-Serif" font-size="11.00" fill="#000000">id</text>
<polygon fill="#ffffff" stroke="transparent" points="285,-149.7 285,-171.7 391,-171.7 391,-149.7 285,-149.7"/>
<polygon fill="none" stroke="#000000" points="285,-149.7 285,-171.7 391,-171.7 391,-149.7 285,-149.7"/>
<image xlink:href="../../images/foreignKeys.png" width="11px" height="12px" preserveAspectRatio="xMinYMin meet" x="290" y="-166.7"/>
<text text-anchor="start" x="307" y="-156.8" font-family="Helvetica,sans-Serif" font-size="11.00" fill="#000000">article_id</text>
<polygon fill="#ffffff" stroke="transparent" points="285,-127.7 285,-149.7 391,-149.7 391,-127.7 285,-127.7"/>
<polygon fill="none" stroke="#000000" points="285,-127.7 285,-149.7 391,-149.7 391,-127.7 285,-127.7"/>
<image xlink:href="../../images/foreignKeys.png" width="11px" height="12px" preserveAspectRatio="xMinYMin meet" x="290" y="-144.7"/>
<text text-anchor="start" x="307" y="-134.8" font-family="Helvetica,sans-Serif" font-size="11.00" fill="#000000">utilisateurs_id</text>
<polygon fill="none" stroke="#000000" points="285,-108.7 285,-127.7 391,-127.7 391,-108.7 285,-108.7"/>
<text text-anchor="start" x="288" y="-114.8" font-family="Helvetica,sans-Serif" font-size="11.00" fill="#000000">...</text>
<polygon fill="#ffffff" stroke="transparent" points="285,-89.7 285,-108.7 320,-108.7 320,-89.7 285,-89.7"/>
<polygon fill="none" stroke="#000000" points="285,-89.7 285,-108.7 320,-108.7 320,-89.7 285,-89.7"/>
<text text-anchor="start" x="288" y="-95.8" font-family="Helvetica,sans-Serif" font-size="11.00" fill="#000000">&lt; 2</text>
<polygon fill="#ffffff" stroke="transparent" points="320,-89.7 320,-108.7 371,-108.7 371,-89.7 320,-89.7"/>
<polygon fill="none" stroke="#000000" points="320,-89.7 320,-108.7 371,-108.7 371,-89.7 320,-89.7"/>
<text text-anchor="start" x="329.4956" y="-95.8" font-family="Helvetica,sans-Serif" font-size="11.00" fill="#000000">50 rows</text>
<polygon fill="#ffffff" stroke="transparent" points="371,-89.7 371,-108.7 391,-108.7 391,-89.7 371,-89.7"/>
<polygon fill="none" stroke="#000000" points="371,-89.7 371,-108.7 391,-108.7 391,-89.7 371,-89.7"/>
<text text-anchor="start" x="381.8862" y="-95.8" font-family="Helvetica,sans-Serif" font-size="11.00" fill="#000000"> &#160;</text>
</a>
</g>
</g>
<!-- commentaire&#45;&gt;article -->
<g id="edge2" class="edge">
<title>commentaire:w&#45;&gt;article:e</title>
<path fill="none" stroke="#000000" d="M271.0921,-165.8761C257.3749,-179.0289 261.9307,-212.7 236.5,-212.7"/>
<polygon fill="#000000" stroke="#000000" points="277.5024,-163.4904 286.2557,-164.0739 281.2512,-162.0952 285,-160.7 285,-160.7 285,-160.7 281.2512,-162.0952 283.7443,-157.3261 277.5024,-163.4904 277.5024,-163.4904"/>
<ellipse fill="none" stroke="#000000" cx="274.5034" cy="-164.6066" rx="3.2" ry="3.2"/>
</g>
<!-- utilisateur -->
<g id="node4" class="node">
<title>utilisateur</title>
<g id="a_node4"><a xlink:href="../../tables/utilisateur.html" xlink:title="utilisateur" target="_top">
<polygon fill="#ffffff" stroke="transparent" points="145.5,-38.2 145.5,-121.2 235.5,-121.2 235.5,-38.2 145.5,-38.2"/>
<polygon fill="#f5f5f5" stroke="transparent" points="145.5,-97.7 145.5,-120.7 235.5,-120.7 235.5,-97.7 145.5,-97.7"/>
<polygon fill="none" stroke="#000000" points="145.5,-97.7 145.5,-120.7 235.5,-120.7 235.5,-97.7 145.5,-97.7"/>
<text text-anchor="start" x="150.471" y="-106.8" font-family="Helvetica,sans-Serif" font-weight="bold" font-size="11.00" fill="#000000">utilisateur</text>
<text text-anchor="start" x="201.0219" y="-105.8" font-family="Helvetica,sans-Serif" font-size="11.00" fill="#000000">[table]</text>
<polygon fill="none" stroke="#000000" points="145.5,-75.7 145.5,-97.7 235.5,-97.7 235.5,-75.7 145.5,-75.7"/>
<image xlink:href="../../images/primaryKeys.png" width="11px" height="12px" preserveAspectRatio="xMinYMin meet" x="150.5" y="-92.7"/>
<text text-anchor="start" x="171.5" y="-82.8" font-family="Helvetica,sans-Serif" font-size="11.00" fill="#000000">id</text>
<polygon fill="none" stroke="#000000" points="145.5,-56.7 145.5,-75.7 235.5,-75.7 235.5,-56.7 145.5,-56.7"/>
<text text-anchor="start" x="148.5" y="-62.8" font-family="Helvetica,sans-Serif" font-size="11.00" fill="#000000">...</text>
<polygon fill="#ffffff" stroke="transparent" points="145.5,-37.7 145.5,-56.7 163.5,-56.7 163.5,-37.7 145.5,-37.7"/>
<polygon fill="none" stroke="#000000" points="145.5,-37.7 145.5,-56.7 163.5,-56.7 163.5,-37.7 145.5,-37.7"/>
<text text-anchor="start" x="148.5" y="-43.8" font-family="Helvetica,sans-Serif" font-size="11.00" fill="#000000"> &#160;</text>
<polygon fill="#ffffff" stroke="transparent" points="163.5,-37.7 163.5,-56.7 210.5,-56.7 210.5,-37.7 163.5,-37.7"/>
<polygon fill="none" stroke="#000000" points="163.5,-37.7 163.5,-56.7 210.5,-56.7 210.5,-37.7 163.5,-37.7"/>
<text text-anchor="start" x="168.9956" y="-43.8" font-family="Helvetica,sans-Serif" font-size="11.00" fill="#000000">50 rows</text>
<polygon fill="#ffffff" stroke="transparent" points="210.5,-37.7 210.5,-56.7 235.5,-56.7 235.5,-37.7 210.5,-37.7"/>
<polygon fill="none" stroke="#000000" points="210.5,-37.7 210.5,-56.7 235.5,-56.7 235.5,-37.7 210.5,-37.7"/>
<text text-anchor="start" x="216.9053" y="-43.8" font-family="Helvetica,sans-Serif" font-size="11.00" fill="#000000">1 &gt;</text>
</a>
</g>
</g>
<!-- commentaire&#45;&gt;utilisateur -->
<g id="edge3" class="edge">
<title>commentaire:w&#45;&gt;utilisateur:e</title>
<path fill="none" stroke="#000000" d="M271.3175,-133.9012C256.8354,-121.0281 261.4253,-86.7 235.5,-86.7"/>
<polygon fill="#000000" stroke="#000000" points="277.4508,-136.0523 283.8085,-142.0971 281.2254,-137.3761 285,-138.7 285,-138.7 285,-138.7 281.2254,-137.3761 286.1915,-135.3029 277.4508,-136.0523 277.4508,-136.0523"/>
<ellipse fill="none" stroke="#000000" cx="274.4312" cy="-134.9932" rx="3.2" ry="3.2"/>
</g>
</g>
</svg>
