<?xml version="1.0" encoding="UTF-8" standalone="no"?>
<!DOCTYPE svg PUBLIC "-//W3C//DTD SVG 1.1//EN"
 "http://www.w3.org/Graphics/SVG/1.1/DTD/svg11.dtd">
<!-- Generated by graphviz version 2.40.1 (20161225.0304)
 -->
<!-- Title: contact Pages: 1 -->
<svg width="198pt" height="194pt"
 viewBox="0.00 0.00 198.00 194.00" xmlns="http://www.w3.org/2000/svg" xmlns:xlink="http://www.w3.org/1999/xlink">
<g id="graph0" class="graph" transform="scale(1 1) rotate(0) translate(4 190)">
<title>contact</title>
<polygon fill="#ffffff" stroke="transparent" points="-4,4 -4,-190 194,-190 194,4 -4,4"/>
<!-- contact -->
<g id="node1" class="node">
<title>contact</title>
<g id="a_node1"><a xlink:href="../../tables/contact.html" xlink:title="contact" target="_top">
<polygon fill="#ffffff" stroke="transparent" points="8,-4 8,-182 182,-182 182,-4 8,-4"/>
<polygon fill="#f5f5f5" stroke="transparent" points="10,-157 10,-180 180,-180 180,-157 10,-157"/>
<polygon fill="none" stroke="#000000" points="10,-157 10,-180 180,-180 180,-157 10,-157"/>
<text text-anchor="start" x="15" y="-166.1" font-family="Helvetica,sans-Serif" font-weight="bold" font-size="11.00" fill="#000000">contact</text>
<text text-anchor="start" x="145.0437" y="-165.1" font-family="Helvetica,sans-Serif" font-size="11.00" fill="#000000">[table]</text>
<polygon fill="none" stroke="#000000" points="10,-135 10,-157 113,-157 113,-135 10,-135"/>
<image xlink:href="../../images/primaryKeys.png" width="11px" height="12px" preserveAspectRatio="xMinYMin meet" x="15" y="-152"/>
<text text-anchor="start" x="30" y="-142.1" font-family="Helvetica,sans-Serif" font-size="11.00" fill="#000000">id</text>
<polygon fill="none" stroke="#000000" points="113,-135 113,-157 180,-157 180,-135 113,-135"/>
<text text-anchor="start" x="116" y="-142.7" font-family="Helvetica,sans-Serif" font-size="11.00" fill="#000000">int[10]</text>
<polygon fill="none" stroke="#000000" points="10,-113 10,-135 113,-135 113,-113 10,-113"/>
<text text-anchor="start" x="30" y="-120.1" font-family="Helvetica,sans-Serif" font-size="11.00" fill="#000000">nom</text>
<polygon fill="none" stroke="#000000" points="113,-113 113,-135 180,-135 180,-113 113,-113"/>
<text text-anchor="start" x="115.9365" y="-120.7" font-family="Helvetica,sans-Serif" font-size="11.00" fill="#000000">varchar[255]</text>
<polygon fill="none" stroke="#000000" points="10,-91 10,-113 113,-113 113,-91 10,-91"/>
<text text-anchor="start" x="30" y="-98.1" font-family="Helvetica,sans-Serif" font-size="11.00" fill="#000000">prenom</text>
<polygon fill="none" stroke="#000000" points="113,-91 113,-113 180,-113 180,-91 113,-91"/>
<text text-anchor="start" x="115.9365" y="-98.7" font-family="Helvetica,sans-Serif" font-size="11.00" fill="#000000">varchar[255]</text>
<polygon fill="none" stroke="#000000" points="10,-69 10,-91 113,-91 113,-69 10,-69"/>
<text text-anchor="start" x="30" y="-76.1" font-family="Helvetica,sans-Serif" font-size="11.00" fill="#000000">adresse_email</text>
<polygon fill="none" stroke="#000000" points="113,-69 113,-91 180,-91 180,-69 113,-69"/>
<text text-anchor="start" x="115.9365" y="-76.7" font-family="Helvetica,sans-Serif" font-size="11.00" fill="#000000">varchar[255]</text>
<polygon fill="none" stroke="#000000" points="10,-47 10,-69 113,-69 113,-47 10,-47"/>
<text text-anchor="start" x="30" y="-54.1" font-family="Helvetica,sans-Serif" font-size="11.00" fill="#000000">sujet</text>
<polygon fill="none" stroke="#000000" points="113,-47 113,-69 180,-69 180,-47 113,-47"/>
<text text-anchor="start" x="115.9365" y="-54.7" font-family="Helvetica,sans-Serif" font-size="11.00" fill="#000000">varchar[255]</text>
<polygon fill="none" stroke="#000000" points="10,-25 10,-47 113,-47 113,-25 10,-25"/>
<text text-anchor="start" x="30" y="-32.1" font-family="Helvetica,sans-Serif" font-size="11.00" fill="#000000">description</text>
<polygon fill="none" stroke="#000000" points="113,-25 113,-47 180,-47 180,-25 113,-25"/>
<text text-anchor="start" x="115.9365" y="-32.7" font-family="Helvetica,sans-Serif" font-size="11.00" fill="#000000">varchar[255]</text>
<polygon fill="#ffffff" stroke="transparent" points="10,-6 10,-25 53,-25 53,-6 10,-6"/>
<polygon fill="none" stroke="#000000" points="10,-6 10,-25 53,-25 53,-6 10,-6"/>
<text text-anchor="start" x="13" y="-12.1" font-family="Helvetica,sans-Serif" font-size="11.00" fill="#000000">&lt; 0</text>
<polygon fill="#ffffff" stroke="transparent" points="53,-6 53,-25 113,-25 113,-6 53,-6"/>
<polygon fill="none" stroke="#000000" points="53,-6 53,-25 113,-25 113,-6 53,-6"/>
<text text-anchor="start" x="77.6105" y="-12.1" font-family="Helvetica,sans-Serif" font-size="11.00" fill="#000000">2 rows</text>
<polygon fill="#ffffff" stroke="transparent" points="113,-6 113,-25 180,-25 180,-6 113,-6"/>
<polygon fill="none" stroke="#000000" points="113,-6 113,-25 180,-25 180,-6 113,-6"/>
<text text-anchor="start" x="161.4053" y="-12.1" font-family="Helvetica,sans-Serif" font-size="11.00" fill="#000000">0 &gt;</text>
<polygon fill="none" stroke="#000000" stroke-width="2" points="9,-5 9,-181 181,-181 181,-5 9,-5"/>
</a>
</g>
</g>
</g>
</svg>
