<?xml version="1.0" encoding="UTF-8" standalone="no"?>
<!DOCTYPE svg PUBLIC "-//W3C//DTD SVG 1.1//EN"
 "http://www.w3.org/Graphics/SVG/1.1/DTD/svg11.dtd">
<!-- Generated by graphviz version 2.40.1 (20161225.0304)
 -->
<!-- Title: doctrine_migration_versions Pages: 1 -->
<svg width="280pt" height="128pt"
 viewBox="0.00 0.00 280.00 128.00" xmlns="http://www.w3.org/2000/svg" xmlns:xlink="http://www.w3.org/1999/xlink">
<g id="graph0" class="graph" transform="scale(1 1) rotate(0) translate(4 124)">
<title>doctrine_migration_versions</title>
<polygon fill="#ffffff" stroke="transparent" points="-4,4 -4,-124 276,-124 276,4 -4,4"/>
<!-- doctrine_migration_versions -->
<g id="node1" class="node">
<title>doctrine_migration_versions</title>
<g id="a_node1"><a xlink:href="../../tables/doctrine_migration_versions.html" xlink:title="doctrine_migration_versions" target="_top">
<polygon fill="#ffffff" stroke="transparent" points="8,-4 8,-116 264,-116 264,-4 8,-4"/>
<polygon fill="#f5f5f5" stroke="transparent" points="10,-91 10,-114 262,-114 262,-91 10,-91"/>
<polygon fill="none" stroke="#000000" points="10,-91 10,-114 262,-114 262,-91 10,-91"/>
<text text-anchor="start" x="15" y="-100.1" font-family="Helvetica,sans-Serif" font-weight="bold" font-size="11.00" fill="#000000">doctrine_migration_versions</text>
<text text-anchor="start" x="227.0437" y="-99.1" font-family="Helvetica,sans-Serif" font-size="11.00" fill="#000000">[table]</text>
<polygon fill="none" stroke="#000000" points="10,-69 10,-91 195,-91 195,-69 10,-69"/>
<image xlink:href="../../images/primaryKeys.png" width="11px" height="12px" preserveAspectRatio="xMinYMin meet" x="15" y="-86"/>
<text text-anchor="start" x="30" y="-76.1" font-family="Helvetica,sans-Serif" font-size="11.00" fill="#000000">version</text>
<polygon fill="none" stroke="#000000" points="195,-69 195,-91 262,-91 262,-69 195,-69"/>
<text text-anchor="start" x="197.9365" y="-76.7" font-family="Helvetica,sans-Serif" font-size="11.00" fill="#000000">varchar[191]</text>
<polygon fill="none" stroke="#000000" points="10,-47 10,-69 195,-69 195,-47 10,-47"/>
<text text-anchor="start" x="30" y="-54.1" font-family="Helvetica,sans-Serif" font-size="11.00" fill="#000000">executed_at</text>
<polygon fill="none" stroke="#000000" points="195,-47 195,-69 262,-69 262,-47 195,-47"/>
<text text-anchor="start" x="198" y="-54.7" font-family="Helvetica,sans-Serif" font-size="11.00" fill="#000000">datetime[19]</text>
<polygon fill="none" stroke="#000000" points="10,-25 10,-47 195,-47 195,-25 10,-25"/>
<text text-anchor="start" x="30" y="-32.1" font-family="Helvetica,sans-Serif" font-size="11.00" fill="#000000">execution_time</text>
<polygon fill="none" stroke="#000000" points="195,-25 195,-47 262,-47 262,-25 195,-25"/>
<text text-anchor="start" x="198" y="-32.7" font-family="Helvetica,sans-Serif" font-size="11.00" fill="#000000">int[10]</text>
<polygon fill="#ffffff" stroke="transparent" points="10,-6 10,-25 94,-25 94,-6 10,-6"/>
<polygon fill="none" stroke="#000000" points="10,-6 10,-25 94,-25 94,-6 10,-6"/>
<text text-anchor="start" x="13" y="-12.1" font-family="Helvetica,sans-Serif" font-size="11.00" fill="#000000">&lt; 0</text>
<polygon fill="#ffffff" stroke="transparent" points="94,-6 94,-25 195,-25 195,-6 94,-6"/>
<polygon fill="none" stroke="#000000" points="94,-6 94,-25 195,-25 195,-6 94,-6"/>
<text text-anchor="start" x="159.6105" y="-12.1" font-family="Helvetica,sans-Serif" font-size="11.00" fill="#000000">7 rows</text>
<polygon fill="#ffffff" stroke="transparent" points="195,-6 195,-25 262,-25 262,-6 195,-6"/>
<polygon fill="none" stroke="#000000" points="195,-6 195,-25 262,-25 262,-6 195,-6"/>
<text text-anchor="start" x="243.4053" y="-12.1" font-family="Helvetica,sans-Serif" font-size="11.00" fill="#000000">0 &gt;</text>
<polygon fill="none" stroke="#000000" stroke-width="2" points="9,-5 9,-115 263,-115 263,-5 9,-5"/>
</a>
</g>
</g>
</g>
</svg>
