<?xml version="1.0" encoding="UTF-8" standalone="no"?>
<!DOCTYPE svg PUBLIC "-//W3C//DTD SVG 1.1//EN"
 "http://www.w3.org/Graphics/SVG/1.1/DTD/svg11.dtd">
<!-- Generated by graphviz version 2.40.1 (20161225.0304)
 -->
<!-- Title: messenger_messages Pages: 1 -->
<svg width="288pt" height="216pt"
 viewBox="0.00 0.00 288.00 216.00" xmlns="http://www.w3.org/2000/svg" xmlns:xlink="http://www.w3.org/1999/xlink">
<g id="graph0" class="graph" transform="scale(1 1) rotate(0) translate(4 212)">
<title>messenger_messages</title>
<polygon fill="#ffffff" stroke="transparent" points="-4,4 -4,-212 284,-212 284,4 -4,4"/>
<!-- messenger_messages -->
<g id="node1" class="node">
<title>messenger_messages</title>
<g id="a_node1"><a xlink:href="../../tables/messenger_messages.html" xlink:title="messenger_messages" target="_top">
<polygon fill="#ffffff" stroke="transparent" points="8,-4 8,-204 272,-204 272,-4 8,-4"/>
<polygon fill="#f5f5f5" stroke="transparent" points="10,-179 10,-202 270,-202 270,-179 10,-179"/>
<polygon fill="none" stroke="#000000" points="10,-179 10,-202 270,-202 270,-179 10,-179"/>
<text text-anchor="start" x="15" y="-188.1" font-family="Helvetica,sans-Serif" font-weight="bold" font-size="11.00" fill="#000000">messenger_messages</text>
<text text-anchor="start" x="235.0437" y="-187.1" font-family="Helvetica,sans-Serif" font-size="11.00" fill="#000000">[table]</text>
<polygon fill="none" stroke="#000000" points="10,-157 10,-179 159,-179 159,-157 10,-157"/>
<image xlink:href="../../images/primaryKeys.png" width="11px" height="12px" preserveAspectRatio="xMinYMin meet" x="15" y="-174"/>
<text text-anchor="start" x="30" y="-164.1" font-family="Helvetica,sans-Serif" font-size="11.00" fill="#000000">id</text>
<polygon fill="none" stroke="#000000" points="159,-157 159,-179 270,-179 270,-157 159,-157"/>
<text text-anchor="start" x="162" y="-164.7" font-family="Helvetica,sans-Serif" font-size="11.00" fill="#000000">bigint[19]</text>
<polygon fill="none" stroke="#000000" points="10,-135 10,-157 159,-157 159,-135 10,-135"/>
<text text-anchor="start" x="30" y="-142.1" font-family="Helvetica,sans-Serif" font-size="11.00" fill="#000000">body</text>
<polygon fill="none" stroke="#000000" points="159,-135 159,-157 270,-157 270,-135 159,-135"/>
<text text-anchor="start" x="161.6115" y="-142.7" font-family="Helvetica,sans-Serif" font-size="11.00" fill="#000000">longtext[2147483647]</text>
<polygon fill="none" stroke="#000000" points="10,-113 10,-135 159,-135 159,-113 10,-113"/>
<text text-anchor="start" x="30" y="-120.1" font-family="Helvetica,sans-Serif" font-size="11.00" fill="#000000">headers</text>
<polygon fill="none" stroke="#000000" points="159,-113 159,-135 270,-135 270,-113 159,-113"/>
<text text-anchor="start" x="161.6115" y="-120.7" font-family="Helvetica,sans-Serif" font-size="11.00" fill="#000000">longtext[2147483647]</text>
<polygon fill="#ffffff" stroke="transparent" points="10,-91 10,-113 159,-113 159,-91 10,-91"/>
<polygon fill="none" stroke="#000000" points="10,-91 10,-113 159,-113 159,-91 10,-91"/>
<text text-anchor="start" x="30" y="-98.1" font-family="Helvetica,sans-Serif" font-size="11.00" fill="#000000">queue_name</text>
<polygon fill="none" stroke="#000000" points="159,-91 159,-113 270,-113 270,-91 159,-91"/>
<text text-anchor="start" x="162" y="-98.7" font-family="Helvetica,sans-Serif" font-size="11.00" fill="#000000">varchar[190]</text>
<polygon fill="none" stroke="#000000" points="10,-69 10,-91 159,-91 159,-69 10,-69"/>
<text text-anchor="start" x="30" y="-76.1" font-family="Helvetica,sans-Serif" font-size="11.00" fill="#000000">created_at</text>
<polygon fill="none" stroke="#000000" points="159,-69 159,-91 270,-91 270,-69 159,-69"/>
<text text-anchor="start" x="162" y="-76.7" font-family="Helvetica,sans-Serif" font-size="11.00" fill="#000000">datetime[19]</text>
<polygon fill="#ffffff" stroke="transparent" points="10,-47 10,-69 159,-69 159,-47 10,-47"/>
<polygon fill="none" stroke="#000000" points="10,-47 10,-69 159,-69 159,-47 10,-47"/>
<text text-anchor="start" x="30" y="-54.1" font-family="Helvetica,sans-Serif" font-size="11.00" fill="#000000">available_at</text>
<polygon fill="none" stroke="#000000" points="159,-47 159,-69 270,-69 270,-47 159,-47"/>
<text text-anchor="start" x="162" y="-54.7" font-family="Helvetica,sans-Serif" font-size="11.00" fill="#000000">datetime[19]</text>
<polygon fill="#ffffff" stroke="transparent" points="10,-25 10,-47 159,-47 159,-25 10,-25"/>
<polygon fill="none" stroke="#000000" points="10,-25 10,-47 159,-47 159,-25 10,-25"/>
<text text-anchor="start" x="30" y="-32.1" font-family="Helvetica,sans-Serif" font-size="11.00" fill="#000000">delivered_at</text>
<polygon fill="none" stroke="#000000" points="159,-25 159,-47 270,-47 270,-25 159,-25"/>
<text text-anchor="start" x="162" y="-32.7" font-family="Helvetica,sans-Serif" font-size="11.00" fill="#000000">datetime[19]</text>
<polygon fill="#ffffff" stroke="transparent" points="10,-6 10,-25 76,-25 76,-6 10,-6"/>
<polygon fill="none" stroke="#000000" points="10,-6 10,-25 76,-25 76,-6 10,-6"/>
<text text-anchor="start" x="13" y="-12.1" font-family="Helvetica,sans-Serif" font-size="11.00" fill="#000000">&lt; 0</text>
<polygon fill="#ffffff" stroke="transparent" points="76,-6 76,-25 159,-25 159,-6 76,-6"/>
<polygon fill="none" stroke="#000000" points="76,-6 76,-25 159,-25 159,-6 76,-6"/>
<text text-anchor="start" x="123.6105" y="-12.1" font-family="Helvetica,sans-Serif" font-size="11.00" fill="#000000">0 rows</text>
<polygon fill="#ffffff" stroke="transparent" points="159,-6 159,-25 270,-25 270,-6 159,-6"/>
<polygon fill="none" stroke="#000000" points="159,-6 159,-25 270,-25 270,-6 159,-6"/>
<text text-anchor="start" x="251.4053" y="-12.1" font-family="Helvetica,sans-Serif" font-size="11.00" fill="#000000">0 &gt;</text>
<polygon fill="none" stroke="#000000" stroke-width="2" points="9,-5 9,-203 271,-203 271,-5 9,-5"/>
</a>
</g>
</g>
</g>
</svg>
